<?xml version="1.0" encoding="utf-8"?>
<!-- Generator: Adobe Illustrator 18.0.0, SVG Export Plug-In . SVG Version: 6.00 Build 0)  -->
<!DOCTYPE svg PUBLIC "-//W3C//DTD SVG 1.1//EN" "http://www.w3.org/Graphics/SVG/1.1/DTD/svg11.dtd">
<svg version="1.1" id="Layer_1" xmlns="http://www.w3.org/2000/svg" xmlns:xlink="http://www.w3.org/1999/xlink" x="0px" y="0px"
	 viewBox="448 28 1024 1024" enable-background="new 448 28 1024 1024" xml:space="preserve">
<path d="M866,540c0-51.9,42-94,94-94c51.9,0,94,42,94,94s-42.1,94-94,94S866,591.9,866,540z M866,164.6c0-51.9,42-94,94-94
	c51.9,0,94,42,94,94s-42.1,94-94,94S866,216.5,866,164.6z M866,915.4c0-51.9,42-94,94-94c51.9,0,94,42,94,94c0,52-42.1,94-94,94
	S866,967.3,866,915.4z"/>
</svg>
