<?xml version="1.0" encoding="utf-8"?>
<!-- Generator: Adobe Illustrator 18.0.0, SVG Export Plug-In . SVG Version: 6.00 Build 0)  -->
<!DOCTYPE svg PUBLIC "-//W3C//DTD SVG 1.1//EN" "http://www.w3.org/Graphics/SVG/1.1/DTD/svg11.dtd">
<svg version="1.1" id="Layer_1" xmlns="http://www.w3.org/2000/svg" xmlns:xlink="http://www.w3.org/1999/xlink" x="0px" y="0px"
	 viewBox="0 0 150 150" enable-background="new 0 0 150 150" xml:space="preserve">
<g>
	<path d="M30.6,109.3v-4.1c2.6-0.2,4.2-0.4,4.7-0.5c0.5-0.1,0.9-0.4,1.3-0.7c0.4-0.3,0.7-0.8,1.1-1.5c0.4-0.7,1.5-3.1,3.3-7.4
		c0.8-2,2.5-6,4.9-12l12.7-31.4L63,40.7h6.9l21.8,51l3,6.7l2,4.5c0.3,0.6,0.6,1,0.9,1.3c0.3,0.3,0.6,0.5,1,0.6
		c0.4,0.1,1.3,0.2,2.9,0.3c0.5,0.1,1.2,0.1,2.1,0.2v4.1L90.1,109L73,109.3v-4.1c3.9-0.2,6.2-0.4,6.7-0.7c0.5-0.3,0.8-0.7,0.8-1.4
		c0-0.8-0.4-2.1-1.1-4l-4.2-10.7H49.9l-2.1,5.8c-1.6,4.5-2.4,7.3-2.4,8.4c0,0.8,0.3,1.3,0.8,1.7c0.8,0.5,3.1,0.7,7,0.9v4.1L41.8,109
		L30.6,109.3z M52.2,82.9c3.1,0.1,6.5,0.1,10.4,0.1c3.7,0,7.1,0,10.1-0.1L62.2,57.7L52.2,82.9z"/>
</g>
<g>
	<path d="M119.4,49v4.8h-34V49H119.4z"/>
</g>
</svg>
