<?xml version="1.0" encoding="utf-8"?>
<!-- Generator: Adobe Illustrator 18.0.0, SVG Export Plug-In . SVG Version: 6.00 Build 0)  -->
<!DOCTYPE svg PUBLIC "-//W3C//DTD SVG 1.1//EN" "http://www.w3.org/Graphics/SVG/1.1/DTD/svg11.dtd">
<svg version="1.1" id="Layer_1" xmlns="http://www.w3.org/2000/svg" xmlns:xlink="http://www.w3.org/1999/xlink" x="0px" y="0px"
	 viewBox="0 0 1024 1024" enable-background="new 0 0 1024 1024" xml:space="preserve">
<path d="M704.5,119.6c-74.4,0-145.8,34.6-192.5,89.4c-46.6-54.7-118-89.4-192.5-89.4c-131.7,0-235.2,103.5-235.2,235.2
	c0,161.7,145.4,293.4,365.7,493.5l62,56l62-56.5c220.3-199.7,365.7-331.4,365.7-493.1C939.7,223.1,836.2,119.6,704.5,119.6z
	 M516.3,784.6l-4.3,4.3l-4.3-4.3C304.2,600.3,169.9,478.4,169.9,354.8c0-85.5,64.2-149.7,149.7-149.7c65.9,0,130,42.3,152.7,100.9
	h80c22.2-58.6,86.4-100.9,152.3-100.9c85.5,0,149.7,64.2,149.7,149.7C854.1,478.4,719.8,600.3,516.3,784.6z"/>
</svg>
