<?xml version="1.0" encoding="utf-8"?>
<!-- Generator: Adobe Illustrator 18.0.0, SVG Export Plug-In . SVG Version: 6.00 Build 0)  -->
<!DOCTYPE svg PUBLIC "-//W3C//DTD SVG 1.1//EN" "http://www.w3.org/Graphics/SVG/1.1/DTD/svg11.dtd">
<svg version="1.1" id="Layer_1" xmlns="http://www.w3.org/2000/svg" xmlns:xlink="http://www.w3.org/1999/xlink" x="0px" y="0px"
	 viewBox="0 0 150 150" enable-background="new 0 0 150 150" xml:space="preserve">
<path d="M134.8,119.6c0,8.1-6.6,14.7-14.7,14.7s-14.7-6.6-14.7-14.7c0-4,1.6-7.6,4.2-10.3l0,0l10.5-10.5l10.5,10.5l0,0
	C133.2,112,134.8,115.6,134.8,119.6z M113.7,85.6l-42.1,42.1c-3.3,3.3-8.6,3.3-11.9,0L17.6,85.6c-3.3-3.3-3.3-8.6,0-11.9l40.4-40.4
	l-10-10l7.6-7.6l15.9,15.9c0,0,0,0,0,0l42.1,42.1C117,77,117,82.3,113.7,85.6z M103.9,79.7L65.6,41.4L27.4,79.6l38.3,38.3
	L103.9,79.7z M35.4,82l30.3,30.3L96,82H35.4z"/>
</svg>
