<?xml version="1.0" encoding="utf-8"?>
<!-- Generator: Adobe Illustrator 18.0.0, SVG Export Plug-In . SVG Version: 6.00 Build 0)  -->
<!DOCTYPE svg PUBLIC "-//W3C//DTD SVG 1.1//EN" "http://www.w3.org/Graphics/SVG/1.1/DTD/svg11.dtd">
<svg version="1.1" id="Layer_1" xmlns="http://www.w3.org/2000/svg" xmlns:xlink="http://www.w3.org/1999/xlink" x="0px" y="0px"
	 viewBox="0 0 300 300" enable-background="new 0 0 300 300" xml:space="preserve">
<path d="M113.4,44.6c0.3,0,0.4,0.2,0.2,0.5c-0.2,0.3-0.4,0.3-0.6,0c2.7-0.5,5.9-0.7,9.6-0.5c3.7,0.2,7.2,0.2,10.5,0
	c0.8-1.5,1.3-3.2,1.3-5.2c0.1-2,0.3-3.9,0.9-5.8c0.5,0.3,0.9,0.8,1,1.5c0.2,0.7,0.2,1.5,0.2,2.3c-0.1,0.9-0.1,1.8-0.2,2.7
	c-0.1,0.9,0,1.8,0.1,2.7c0.3,1.1,0.8,1.7,1.6,1.7c0.7,0,1.7,0,2.8,0c4.5-0.1,8.8-0.2,13-0.3c4.2-0.1,8.2-0.2,12.2-0.3
	c4-0.1,8-0.2,12-0.2c4.1-0.1,8.3-0.1,12.7-0.2c0.5,0,0.8-0.1,0.7-0.4c-0.1-0.3,0.1-0.5,0.4-0.7c1,0,1.8,0.2,2.2,0.5
	c0.9-0.4,2.1-0.6,3.4-0.6c1.4,0,2.8,0.1,4.4,0.2c1.6,0.2,3.1,0.3,4.7,0.5c1.6,0.2,3,0.1,4.4-0.1c2-0.2,3.9-0.5,5.8-1
	c1.9-0.5,3.8-0.9,5.8-1.2c0.8,0,1.7,0,2.7-0.1c1-0.1,1.9-0.2,2.7-0.4c2.2,0,4.5-0.2,7-0.5s5.4-0.4,8.7-0.2c0.5-0.8,1-1.6,1.4-2.4
	c0.4-0.8,0.9-1.4,1.4-2c0.8,0.5,1.1,1.1,0.9,1.7c-0.2,0.6-0.2,1.4,0.2,2.2c0.2-2,0.3-3.9,0.2-5.6c-0.1-1.8-0.2-3.7-0.2-5.9
	c-0.3-1.1-0.6-2.2-0.9-3.2c-0.3-1,0-1.7,0.9-2.3c0.8,0.5,1.1,1.2,0.9,2c-0.3,0.8-0.4,1.8-0.4,3c0.5-0.3,0.9-0.5,1.1-0.7
	c0.2-0.2,0.6-0.1,1.1,0.1c0,1.1,0,2.4,0.1,3.7c0.1,1.3,0.2,2.6,0.5,4c0.5-0.5,1.1-0.4,1.6,0.5c0.6,0.8,0.8,2,0.5,3.4
	c0,0.2,0.3,0.3,0.9,0.2c0.6-0.1,1,0,1.3,0.2c0,0.5-0.2,1-0.5,1.3c-0.4,0.4-0.5,0.7-0.5,0.9c1.1,0,1.8,0.1,2.1,0.2
	c0.3,0.2,0.8,0.1,1.6-0.2c0.3,0.3,0.3,0.6,0,0.9c-0.3,0.3-0.5,0.5-0.5,0.9c0.5,0,1,0.1,1.5,0.2c0.5,0.1,0.7,0.6,0.7,1.4
	c-0.5,0.3-1.4,0.4-2.5,0.3c-1.1-0.1-2.1,0-3,0.3c0.3,3.5,0.5,7.4,0.5,11.5c0.1,4.1,0.1,8.3,0.1,12.6c0,4.3,0,8.5-0.1,12.6
	c-0.1,4.1-0.1,7.9-0.1,11.5c1.5,0.2,3.1,0.3,4.8,0.3c1.8,0,3.1,0.4,3.9,1.2c-0.5-0.1-1.2-0.2-2-0.3c-0.8-0.1-1.7-0.2-2.5-0.2
	c-0.8-0.1-1.6-0.1-2.4,0c-0.8,0.1-1.4,0.2-1.8,0.5v1.1c0.5,0.3,1,0.5,1.4,0.7c0.4,0.2,0.9,0.5,1.4,1c-0.5,0.4-1.1,1.1-1.7,2.2
	c0.3,0.3,0.9,0.4,1.6,0.4c0.8-0.1,1.6-0.1,2.4-0.2c0.8-0.1,1.6,0,2.2,0.2s0.9,0.5,0.9,1.2c-1.1,0.3-2.5,0.4-4.1,0.3
	c-1.6-0.1-2.8,0-3.6,0.3c0,1.1,0,2.4-0.1,3.7c-0.1,1.3-0.1,2.6,0,3.8c0.1,1.2,0.2,2.4,0.5,3.5c0.3,1.1,0.7,2,1.2,2.6
	c-0.2,0.3-0.5,0.7-1,1c-0.5,0.4-0.9,1-1.2,1.8c-0.2-0.5-0.2-1.3-0.1-2.3c0.2-1-0.2-1.6-1-1.6c-0.1-0.1-0.1-0.2,0-0.3
	c0-0.1,0.2-0.4,0.6-0.8c-1.1-1.7-2.3-3.1-3.5-4.3c-1.2-1.2-2.2-2.5-3-3.8c-0.5-0.3-1-0.3-1.3-0.1c-0.4,0.3-0.7,0.3-0.9,0.1
	c0-0.5-0.1-1-0.4-1.6c-0.3-0.5-0.5-0.9-0.7-1.2H243c0,0.5,0.1,1,0.4,1.4c0.3,0.4,0.5,0.8,0.8,1.2c0.3,0.4,0.5,0.8,0.6,1.2
	c0.2,0.4,0.1,0.8-0.2,1.2c-0.5,0-0.9-0.1-1.2-0.3c-0.3-0.2-0.5-0.5-0.6-0.8c-0.2-0.3-0.3-0.6-0.5-0.9c-0.2-0.3-0.5-0.6-0.9-0.8
	c-0.5,0-0.7,0.2-0.6,0.5c0.1,0.4-0.2,0.5-0.9,0.5c-0.3-0.2-0.5-0.6-0.7-1.3c-0.2-0.7-0.1-1.1,0.1-1.3c-0.8,0-1.3,0.2-1.4,0.7
	c-0.1,0.5-0.2,1-0.2,1.5c-0.3,0-0.5-0.2-0.5-0.6c-0.1-0.4-0.1-0.8-0.1-1.1c-0.5,0-1.1-0.1-1.8-0.2c-0.7-0.1-1.2-0.4-1.5-0.9
	c0.3-0.2,0.8-0.3,1.3-0.3c0.6,0,0.9-0.3,0.9-0.8c-1.1-0.2-2.4-0.2-3.8,0.2c-1.4,0.3-2.7,0.5-3.8,0.5c-0.2-0.3-0.3-0.7-0.4-1.2
	c-0.1-0.5-0.1-0.8-0.1-1c0.5-0.3,1-0.6,1.3-1c0.4-0.4,0.8-0.4,1.3-0.1c-0.5-0.3-1.2-0.8-2.2-1.5c-0.9-0.7-1.3-1.8-1.1-3.5
	c0.5,0,1-0.1,1.4-0.2c0.4-0.1,0.9-0.1,1.4,0.2c0.2,0.3,0.1,0.5-0.4,0.6c-0.5,0.1-0.7,0.3-0.7,0.5c0.2,1.1,0.9,2,2,2.4
	c1.1,0.5,2.3,0.6,3.4,0.4c-0.3-0.5-0.8-1.2-1.6-2.1c-0.7-0.9-0.9-2-0.6-3.4c-0.8-0.8-1.5-1.8-2-2.9c-0.5-1.1-1.5-1.8-3-2.1
	c0.3-1.4,0-2.3-1-2.7s-1.9-0.8-2.7-1c0.2-0.8,0.3-1.3,0.4-1.3c0.1-0.1,0.1-0.3,0.1-0.9c0-0.5-0.4-0.8-1.2-0.8
	c-0.8,0-1.3-0.1-1.5-0.3c-0.3-0.3-0.6-0.7-0.9-1.2s-0.7-0.8-1.2-1c0.5-0.3,1-0.2,1.3,0.3c0.4,0.5,0.8,0.8,1.3,0.8
	c-0.5-0.8-1-1.7-1.5-2.7c-0.5-1-1-1.9-1.7-2.7c-0.7-0.8-1.5-1.4-2.4-1.8c-0.9-0.4-2.1-0.4-3.6,0c-0.3,0.3-0.3,0.5-0.1,0.6
	c0.3,0.1,0.3,0.3,0.1,0.5c-1.5-1.1-3-2.2-4.7-3c-1.7-0.9-3.2-2.1-4.7-3.5c1.1,0.3,2.4,0.9,3.8,1.9c1.4,0.9,2.7,2,3.8,3.1
	c0.3-0.8,0.8-1.2,1.3-1.2c0.6,0.1,1.4,0.1,2.6,0.1c-0.8-1.1-1.9-2.4-3-3.7c-1.2-1.3-2.4-2.6-3.5-4c-2.2,0-4.1,0.1-5.7,0.2
	c-1.6,0.1-3.4,0.1-5.2-0.2c0.8-0.8,1.6-1.1,2.4-0.9c0.8,0.2,1.6,0.3,2.4,0.3c0.5,0,0.7-0.2,0.5-0.6c-0.2-0.4-0.2-0.7,0.2-0.9
	c0.2,0,0.3,0.2,0.2,0.6c-0.1,0.4-0.2,0.7-0.2,0.9c0.5-0.2,1-0.3,1.6-0.2c0.5,0.1,0.9,0.2,1.1,0.2c0-0.2-0.3-0.5-0.9-1
	c-0.6-0.5-1-0.9-1.3-1.2c-2.7-0.5-5.5-0.5-8.4-0.1c-2.9,0.5-5.5,0.7-8,0.7c-5.2,0.2-10.5,0.2-16,0.1c-5.5-0.2-10.7,0.2-15.7,1
	c0,0.2,0,0.6-0.1,1.1c-0.1,0.5,0.3,0.5,1.2,0c-0.2,0.5-0.7,0.7-1.4,0.6c-0.7-0.1-1.4-0.2-1.9-0.2c0-0.2,0.3-0.2,0.8,0
	c0.5,0.2,0.6,0.1,0.3-0.5c-1.1-0.5-2.8-0.8-4.9-0.9c-2.1-0.1-3.8,0-4.9,0.2c0,0.3,0,0.7-0.1,1.2c-0.1,0.5,0.2,0.7,0.7,0.5
	c-0.3,0.2-0.5,0.5-0.6,0.8c-0.1,0.3-0.3,0.6-0.5,0.8c0.4,5.5,0.5,11.4,0.4,17.7c-0.2,6.2-0.3,12.7-0.5,19.2
	c-0.2,6.6-0.2,13.1-0.2,19.5c0.1,6.5,0.5,12.7,1.3,18.6c3-0.5,6.2-0.9,9.6-1c3.4-0.2,6.7-0.4,10.1-0.7c1.9,0,3.8,0.1,5.7,0.2
	c1.9,0.2,3.5,0.1,4.6-0.2c0.8-0.3,1.6-0.8,2.3-1.4c0.7-0.6,1.5-1.3,2.2-2.1c0.7-0.8,1.4-1.6,2-2.3c0.6-0.8,1.2-1.4,1.7-1.8
	c0.5-0.2,0.9-0.4,1.2-0.5c0.3-0.1,0.6-0.3,0.9-0.6c1.4-1.7,2.8-3.1,4.5-4.4c1.6-1.2,3.1-2.6,4.5-4.1c1.4-1.5,2.5-3.2,3.4-5.1
	c0.9-1.9,1.3-4.3,1.3-7.2c-0.6,0.3-1.2,0.8-1.6,1.3c-0.5,0.6-0.9,1.2-1.4,1.8c-0.5,0.6-1,1.2-1.5,1.7c-0.5,0.5-1.2,0.9-2,1.2
	c0.1-0.9,0.4-1.7,0.9-2.3c0.5-0.6,1-1.2,1.5-1.7c0.5-0.5,1-1,1.5-1.6c0.5-0.5,0.9-1.2,1.2-2c-1.5-0.3-2.6-0.5-3.5-0.7s-1.9-0.5-3-1
	c0.4-0.6,1-1.1,1.8-1.3c0.8-0.3,1.6-0.4,2.6-0.5c0.9-0.1,1.9-0.1,3-0.1c1,0.1,2,0,3-0.2c0.5-0.5,1.1-1.1,1.7-1.8
	c0.6-0.7,1.4-1.2,2.2-1.5c0.3-0.5,0.5-1.1,0.6-1.6c0.1-0.6,0.2-1.1,0.4-1.6c0.2-0.5,0.4-0.9,0.7-1.2c0.3-0.3,0.8-0.5,1.6-0.5
	c0.5,1.1,0.4,2.1-0.2,2.7c-0.7,0.7-1.2,1.6-1.5,2.7c0.7,0.5,1.1,1.4,1.1,2.7c0.5-0.2,0.6-0.5,0.3-1c-0.3-0.5-0.2-0.9,0.3-1.2
	c0.5,0.2,0.9,0.5,1.2,0.8s0.5,0.7,0.8,1c0.3,0.4,0.5,0.7,0.9,0.9c0.3,0.2,0.8,0.3,1.6,0.2c0.2-0.5,0.2-1.2,0-2
	c-0.2-0.8-0.1-1.2,0.5-1.2c0.1-0.4,0.1-0.9,0.1-1.5c-0.1-0.6-0.1-1.1-0.2-1.6c-0.1-0.5-0.1-1,0-1.3c0.1-0.4,0.3-0.5,0.7-0.5
	c0.5,1.1,0.9,2.4,1,3.7c0.2,1.3,0.3,2.6,0.5,4c1.1,0,2.2,0,3.3-0.1c1-0.1,2,0.2,2.8,0.7c0,0.3-0.1,0.5-0.3,0.5
	c-0.2,0.1-0.4,0.1-0.7,0.2c-0.3,0.1-0.5,0.2-0.6,0.4c-0.2,0.2-0.2,0.6-0.1,1.1c-0.5,0.2-1.1,0.2-1.6,0c-0.6-0.2-1.1-0.1-1.6,0.5
	c0.8,2.5,1.8,4.6,2.9,6.4c1.1,1.8,1.8,4,2.1,6.7c-0.3-0.5-0.7-1.2-1.1-2.2c-0.4-0.9-0.6-1.8-0.6-2.7c-0.5-0.8-1.1-1.7-1.6-2.7
	c-0.6-1-1.3-1.7-2.1-2.3c0.4,1.2,0.6,2.6,0.5,3.9c-0.1,1.4-0.2,2.7-0.4,4c-0.2,1.3-0.4,2.6-0.6,3.7c-0.2,1.2-0.3,2.3-0.2,3.2
	c0,1.4,0,3.2-0.1,5.5c-0.1,2.3,0.2,4.3,0.7,5.9c0,0.8-0.2,1.5-0.5,1.9c-0.3,0.4-0.4,0.9-0.2,1.4c0,0.8,0.3,1.2,0.8,1.2
	c0.5-0.1,0.6,0.3,0.3,1c0.3,0.5,0.3,0.8-0.1,0.7c-0.4-0.1-0.7-0.1-1-0.1v2.7c0.3,0.3,0.7,0.4,1.2,0.3c0.5-0.1,0.8,0,1,0.3
	c0,0.8-0.2,1.2-0.7,1.2c-0.5,0-1,0.1-1.5,0.3c0.3,0.8,0.5,1.7,0.6,2.7c0.1,1,0.3,1.7,0.5,2.3c-0.8,2.2-1,4.7-0.6,7.4
	c0.4,2.8,0.6,5.4,0.6,7.9c0,0.2,0,0.7-0.1,1.3c-0.1,0.7-0.2,1.1-0.4,1.3c0,0.3-0.1,0.4-0.3,0.3c-0.2-0.1-0.3,0-0.3,0.3
	c-0.2,1.4-0.2,2.8-0.1,4.5c0.2,1.6,0.4,2.8,0.7,3.7c-0.5,1.1-0.7,2.2-0.5,3.1c0.2,0.9,0.2,2.1-0.2,3.4c0.3,0.3,0.7,0.5,1.1,0.7
	c0.4,0.2,0.6,0.5,0.6,1c0,0.5-0.2,0.9-0.6,1c-0.4,0.2-0.8,0.3-1.1,0.5c0,0.8,0.2,1.4,0.5,1.6c0.4,0.2,0.5,0.4,0.5,0.6
	c0.3,0.5,0.3,0.9-0.1,1c-0.4,0.2-0.7,0.4-1,0.7c0.8,0.5,1.9,0.8,3.1,0.9c1.2,0.1,2.6,0.2,4.1,0.2c-0.8,0.8-1.7,1.1-2.6,0.9
	c-0.9-0.3-2.1-0.4-3.5-0.4c0,0.3,0.1,0.5,0.2,0.6c0.2,0.1,0.1,0.3-0.2,0.5c0.3,0.5,0.9,0.7,1.6,0.5c0.8-0.2,1.2,0,1.2,0.5
	c-0.3,0.5-0.8,0.8-1.6,0.9c-0.7,0.1-1.5,0.2-2.3,0.2v4.4c0,0.4-0.1,0.6-0.3,0.6c-0.1,0.1-0.2,0.1-0.2,0c-0.3,0.5-0.4,1.1-0.3,1.6
	c0.1,0.6,0.2,1.1,0.2,1.6s0.1,0.9,0.1,1.2c0,0.4-0.2,0.7-0.6,1c-0.5-1.7-0.6-3.2-0.3-4.7c0.3-1.5,0.1-3-0.8-4.7
	c-0.2,0.3-0.2,0.9-0.1,1.8c0.2,0.9-0.2,1.2-1,1v-3.3c-1.1-0.5-2.3-0.7-3.4-0.5c-1.1,0.2-2.3,0.2-3.7-0.2c0,0.5,0.1,0.9,0.2,1.1
	c0.2,0.2,0.2,0.6,0.2,1.1c-0.2,0.3-0.5,0.5-1,0.6c-0.5,0.1-0.9,0.3-1.2,0.5c0.5,1.5,1,2.9,1.4,4.4c0.4,1.5,0.9,2.8,1.4,3.9
	c0,0.5,0.2,1.2,0.5,2.1c0.4,0.9,0.2,1.4-0.5,1.6c-0.8-0.2-1.2-0.7-1.2-1.5c0.1-0.8,0.1-1.7,0.1-2.9c0-1.7-0.6-3.3-1.7-5
	c-1.1-1.7-1.9-3.4-2.2-5.3c-0.2,0-0.5,0.1-1,0.2c-0.5,0.1-0.9,0.1-1.2-0.2c-0.5-0.8-0.6-1.5-0.2-1.9c0.4-0.4,0.8-0.9,1.3-1.4
	c0-0.3-0.1-0.6-0.2-0.9c-0.2-0.3-0.2-0.5-0.2-0.9c-1.1-0.2-2.1-0.1-3,0.5c-0.8,0.5-1.7,0.4-2.5-0.5c0.5-0.5,1.3-0.8,2.4-0.7
	c1.1,0.1,1.9-0.1,2.4-0.4c-0.8-1.9-1.6-4-2.3-6.3c-0.7-2.3-1.7-4.2-3.2-5.7V178c0-0.4-0.4-0.6-1.1-0.6l0.5-0.8l-0.5-0.8
	c-0.2,0-0.3,0.2-0.3,0.5c0,0.4-0.3,0.5-0.8,0.5c0.5-1.1,0.7-2.3,0.6-3.4c-0.1-1.1-0.8-1.8-2.2-2c0.5-0.8,0.4-1.5-0.3-1.9
	c-0.7-0.4-1.4-0.9-1.9-1.4c-0.3-0.5-0.7-1.2-1.2-2c-0.5-0.8-1-1.2-1.6-1.2h-2.2c-0.1-1-0.6-1.7-1.4-2.1c-0.8-0.4-1.8-0.6-2.9-0.6
	c-1.1-0.1-2.2-0.1-3.2-0.2c-1-0.1-1.8-0.4-2.3-0.9c0-0.2,0.2-0.4,0.5-0.5c0.3-0.1,0.7-0.3,1.2-0.6c-2.5-0.5-5.3-0.9-8.4-1.2
	c-3.1-0.3-6-0.4-8.7-0.4c-0.4,0.9-1.1,1.5-2,1.6c-0.9,0.2-2,0.2-3.1,0.1c-1.1-0.1-2.3-0.2-3.6-0.4c-1.2-0.2-2.3-0.1-3.3,0.2
	c-0.4,6.1-0.8,12.1-1.1,17.9c-0.3,5.8-0.6,11.5-0.8,17.3c-0.2,5.7-0.3,11.5-0.4,17.3c-0.1,5.8,0,11.9,0.1,18.1c0,0.5,0.1,0.9,0.4,1
	c0.3,0.2,0.5,0.3,0.7,0.5c-0.5,0.8-0.7,2-0.4,3.4c0.3,1.5,0.4,2.9,0.4,4.2c1.7,1.5,3.6,2.9,5.8,4.5c2.2,1.5,4.6,2.4,7.3,2.7
	c1.5,0.2,3,0.2,4.6,0c1.6-0.2,3-0.1,4.1,0.5c-0.2,0.3-0.9,0.4-2,0.2c-1.1-0.2-2.1-0.2-2.9-0.2c1.1,0.5,2.5,0.9,4.1,1.2
	c1.6,0.3,2.9,0.5,4.1,0.5c0.3-1.5,0.7-2.7,1.2-3.8c0.5-1.1,0.8-2.2,1-3.4c0.5,0,0.9,0.1,1,0.4c0.2,0.3,0.4,0.5,0.7,0.7
	c0.5-0.2,0.7-0.5,0.5-0.8c-0.2-0.3,0-0.2,0.5,0.3c0.1-0.3,0.1-0.7-0.1-1.2c-0.2-0.5-0.3-1.1-0.5-1.6c-0.2-0.6-0.2-1.1-0.1-1.5
	c0.1-0.4,0.5-0.6,1.1-0.6c0.3,2.2,0.4,4.3,0.2,6.3c-0.2,2,0.1,4.1,0.9,6.3c1.7,0.5,3.5,0.9,5.4,1.2c1.9,0.3,3.6,0.6,5.1,0.9
	c-0.3,0.5-0.7,0.8-1.1,0.9c-0.4,0.1-0.9,0.1-1.4-0.1c-0.5-0.2-1-0.3-1.6-0.5c-0.5-0.2-1-0.3-1.4-0.3c-0.4,0.4-0.6,0.7-0.6,0.9
	c-0.1,0.2-0.1,0.4,0,0.6c-0.8,0-1.4,0.1-1.8,0.2c-0.4,0.2-0.7,0.1-0.9-0.2c-0.3,0-0.4,0.2-0.3,0.6c0.1,0.4,0,0.8-0.3,1.1
	c0.8,0.5,1.6,1,2.3,1.4c0.7,0.4,1,1.2,1,2.3c-0.2,0.3-0.6,0.5-1.1,0.6c-0.5,0.1-1,0.3-1.6,0.5c0.4,0.4,1,0.6,1.7,0.5
	c0.7-0.1,1.5-0.1,2.3-0.2c0.8-0.1,1.6-0.1,2.3-0.1c0.7,0.1,1.3,0.3,1.7,0.9c-0.8,0.3-1.8,0.4-3,0.3c-1.1-0.1-2,0-2.5,0.3
	c0,0.2,0.4,0.3,1.1,0.3c0.7,0,1.1,0.3,1.1,0.8c0,0.5-0.2,0.9-0.6,1c-0.4,0.2-0.9,0.2-1.4,0.1c-0.5-0.1-1-0.2-1.6-0.4
	c-0.5-0.2-0.9-0.2-1.2-0.2c-0.5,0.3-0.8,0.8-0.8,1.5s-0.1,1.3-0.3,1.8c0.6,0.2,1.5,0.3,2.7,0.2c1.2-0.1,2.4-0.2,3.7-0.2
	c1.3-0.1,2.5-0.1,3.7,0c1.2,0.1,2.2,0.3,2.9,0.7c-2,0.5-4.2,0.6-6.8,0.4s-5-0.4-7.4-0.4c-0.4,0.3-0.6,0.8-0.6,1.6
	c-0.5-0.5-0.9-0.7-1.1-0.4c-0.2,0.3-0.7,0.4-1.6,0.4v-1.6c-0.3,0-0.6-0.1-0.9-0.2c-0.3-0.2-0.5-0.1-0.9,0.2c0-0.5,0.3-0.8,0.9-0.9
	c0.6-0.1,0.9,0,0.9,0.2c0.2-0.5,0.3-1.1,0.4-1.6c0.1-0.6,0.1-1.1,0.1-1.6c-3.5-0.2-7.8-0.3-12.7-0.2c-4.9,0.1-9.6,0.2-14,0.2
	c-0.3,0.7-0.4,1.5-0.3,2.3c0.1,0.8,0.2,1.7,0.4,2.6c0.2,0.9,0.2,1.7,0.2,2.5c-0.1,0.8-0.3,1.4-0.9,2c-0.5,0-0.9-0.4-1-1.2
	c-0.2-0.8-0.3-1.5-0.5-2c0.2,0,0.4,0.2,0.5,0.5c0.1,0.4,0.3,0.5,0.6,0.5c0.4-2.2,0.4-4.4,0-6.6c-0.3-0.5-0.9-0.8-1.8-0.7
	c-0.9,0.1-1.6,0.1-2.1,0.1c-0.1,0.4-0.1,0.9,0.1,1.4c0.2,0.5,0.3,1,0.4,1.6c0.1,0.5,0.1,1,0,1.4c-0.1,0.4-0.4,0.8-0.9,1.1
	c-0.3-0.5-0.4-1.4-0.3-2.5c0.1-1.1,0-2.1-0.3-3c-3.4,0-6.6,0-9.4-0.1c-2.8-0.1-5.5-0.1-8.1-0.1c-2.6,0-5.2,0-7.7,0
	c-2.6,0-5.2,0.1-8,0.2c-0.3,0-0.5,0.1-0.6,0.3c-0.1,0.2-0.3,0.3-0.5,0.3c-3.6-0.5-7.2-0.7-10.6-0.6c-3.4,0.1-6.7,0.3-9.7,0.6
	c0,1.4,0,2.8,0.1,4.3c0.1,1.5,0.2,3,0.5,4.5c0,0.8,0.2,1.8,0.5,2.9c0.3,1.1-0.1,1.7-1.1,2c-0.8-1.9-1.2-4.1-1.2-6.6
	c0.1-2.5,0.1-4.8,0.1-7c-3.9,0-7.9,0.1-12.1,0.3c-4.2,0.2-8,0.5-11.3,0.8c0,0.5,0.3,0.7,0.8,0.5c0.5-0.2,0.8,0,0.8,0.5
	c-0.5,0.8-1.1,1-1.6,0.5c-0.6-0.5-1.1-1-1.6-1.6c-0.8,0-1.5,0.1-2,0.4c-0.5,0.3-1,0.6-1.3,0.9c-0.4,0.4-0.8,0.7-1.2,0.9
	c-0.4,0.3-0.9,0.4-1.4,0.4c-0.3-0.2-0.7-0.5-1.2-0.9c-0.5-0.4-1-0.4-1.6-0.2c-1.1-2.2-2.8-3.3-4.8-3.3c-0.5,0-1.1,0.1-1.7,0.3
	c-0.6,0.2-1.2,0.3-1.7,0.3s-0.9-0.1-1.2-0.4c-0.3-0.3-0.4-0.9-0.3-1.8c0.8-0.3,1.6-0.4,2.4-0.3c0.8,0.1,1.4,0,2-0.3
	c-0.3-0.5-0.7-0.8-1.2-0.9c-0.5-0.1-1-0.1-1.6-0.1c-0.6,0.1-1.3,0.2-2,0.3c-0.7,0.2-1.3,0.2-1.8,0.2c0-0.4-0.4-0.6-1.1-0.6
	c1.7-0.8,3.5-1.2,5.5-1.2c2,0.1,4,0.1,6,0.1c-0.3,0-0.5-0.1-0.6-0.2c-0.1-0.2-0.3-0.2-0.5-0.2c0.5-1.1,1.2-2,2-2.4
	c0.8-0.5,1.6-1,2.4-1.5c-0.3-0.2-0.6-0.4-0.9-0.5c-0.3-0.1-0.5-0.3-0.9-0.6c-0.5,0.3-0.9,0.7-1.2,1.2c-0.3,0.5-0.6,0.8-0.9,1
	c-0.2-0.5-0.1-1,0.4-1.3c0.5-0.4,0.7-0.8,0.7-1.3c0-0.3-0.1-0.5-0.2-0.7c-0.2-0.2-0.2-0.5-0.2-1c-0.3,0-0.9,0.1-1.7,0.4
	c-0.8,0.3-1.4,0-1.6-0.9c0.8,0,1.7-0.1,2.7-0.4c1-0.3,2.1-0.5,3.2-0.7c0.1-0.7,0.3-1.2,0.5-1.6c0.2-0.3,0.4-0.6,0.6-0.9
	c0.2-0.3,0.4-0.6,0.5-0.9c0.1-0.3,0.2-0.8,0.2-1.6c0.2,0.5,0.6,1,1.1,1.5c0.5,0.5,0.5,1.3,0,2.4c4.1-1.1,8.3-2.2,12.8-3.3
	c4.5-1,8.7-2.1,12.8-3.3c-0.5-5.6-0.5-11.5,0-17.5c-0.6,0.8-1,1.8-1.1,2.9c-0.1,1.1-0.1,2.2-0.1,3.2c0.1,1,0.1,2,0.2,2.9
	c0.1,0.9-0.1,1.5-0.5,2c-0.3-1.5-0.4-3-0.2-4.5c0.2-1.6,0.2-3.2,0.2-4.8c-0.5-7.9-0.9-15.6-1.2-23c-0.3-7.4-0.2-14.9,0.1-22.3
	c0-0.5-0.2-0.7-0.6-0.5c-0.4,0.2-0.8,0-1.1-0.5c0-0.5,0.2-0.9,0.6-1.1c0.4-0.2,0.8-0.6,1.1-1.1c0.2-4.7,0.5-8.9,0.8-12.7
	c0.3-3.7,0.6-7.9,0.8-12.5c0-0.5-0.2-0.7-0.5-0.5c-0.4,0.2-0.5,0-0.5-0.5c-0.2-0.5-0.1-0.9,0.4-1c0.5-0.2,0.7-0.4,0.7-0.7
	c0.3-0.8,0.2-1.3-0.3-1.3c-0.5-0.1-0.8-0.3-0.8-0.9c0-0.5,0.2-0.8,0.5-0.7c0.4,0.1,0.5-0.1,0.5-0.4c0.3-5.7,0.3-11.8,0.1-18.1
	c-0.3-6.4-0.7-12.1-1.2-17.3c-0.3-0.3-0.7-0.5-1.2-0.5s-1,0-1.6,0.1c-0.6,0.1-1.1,0.1-1.6,0c-0.5-0.1-0.9-0.3-1.2-0.7
	c0.5-0.3,1.4-0.5,2.5-0.5c1.1-0.1,2.1-0.1,3-0.1c-0.1-1.9-0.2-4.1-0.2-6.6c0-2.6,0-5.2,0-8c0-2.8-0.1-5.6-0.3-8.4
	c-0.2-2.8-0.6-5.5-1.1-8c0.2-1.1,0.2-2.4-0.1-3.8c-0.3-1.4-0.2-2.5,0.1-3.4h1.6c0.8,2.2,1.1,4.5,0.7,7c-0.4,2.5-0.4,5.3-0.1,8.3
	c0.2,0,0.4-0.1,0.5-0.2c0.1-0.2,0.3-0.2,0.6-0.2c0-2.2,0.1-4.4,0.2-6.7c0.1-2.3,0.1-4.3-0.2-5.9c0-1.1-0.2-2-0.5-2.7
	c-0.3-0.6-0.7-1.2-1.2-1.7c-0.2,0-0.3-0.1-0.2-0.3c0.1-0.2,0-0.5-0.2-0.8c-0.8-1.1-1.9-1.8-3.1-2.1c-1.2-0.3-2.6-0.8-4.1-1.6
	c-1.9-0.3-3.7-0.7-5.5-1.1c-1.8-0.4-3.5-0.8-5.2-1.2c-1.7-0.4-3.4-0.6-5.2-0.8c-1.8-0.2-3.6-0.1-5.5,0.2v4.4h-1.1
	c-0.3,0.8-0.4,1.6-0.2,2.2c0.2,0.6,0.2,1.2,0.2,1.7c0,0.2-0.1,0.2-0.3,0c-0.2-0.2-0.3-0.1-0.3,0.5c-0.5-0.4-0.8-0.9-0.8-1.6
	c0-0.6,0.1-1.3,0.2-2.1s0.3-1.6,0.5-2.5c0.2-0.9,0.2-1.7,0.1-2.6c-0.6-0.3-1.4-0.4-2.2-0.3c-0.8,0.1-1.6,0.2-2.4,0.3
	c-0.8,0.1-1.5,0.2-2.1,0.2s-1.1-0.2-1.4-0.6c0.3-0.4,0.7-0.7,1.2-0.9c0.5-0.2,1.1-0.2,1.8-0.2c0.7,0,1.4,0,2.1-0.1
	c0.7-0.1,1.4-0.2,1.9-0.5c-0.5,0-1.2-0.1-2.2-0.2c-0.9-0.1-1.8-0.4-2.7-0.9c-0.3-0.5-0.3-0.9,0.2-1.2c0.4-0.3,0.9-0.4,1.4-0.4
	c0-0.3-0.1-0.5-0.2-0.6c-0.1-0.1-0.1-0.3,0.2-0.5c0.3,0,0.9-0.1,1.9-0.2c0.9-0.1,1.4-0.4,1.4-0.9c-0.4-0.3-0.9-0.4-1.4-0.3
	c-0.5,0.1-1,0.2-1.6,0.3c-0.5,0.1-1,0.2-1.4,0.3c-0.4,0.1-0.8,0-1.1-0.3v-0.6c0.5-0.8,1.4-1.2,2.6-1.2c1.2,0.1,2.4,0.1,3.5,0.1
	c0.2-0.2,0.3-0.5,0.2-1c-0.1-0.5-0.2-0.9-0.2-1.2c-0.4-0.1-0.9-0.1-1.3-0.1c-0.5,0.1-0.9,0.1-1.4,0.2c-0.5,0.1-0.9,0.1-1.2,0.1
	c-0.4-0.1-0.7-0.3-1-0.7c0.5-0.5,1.1-1,1.7-1.4c0.6-0.4,1.4-0.9,2.2-1.4c-0.8,0.3-1.9,0.4-3,0.2c-1.2-0.2-2.4-0.4-3.5-0.6
	c0.1-0.7,0.4-1.2,0.9-1.3c0.5-0.2,1.1-0.2,1.9-0.2c0.7,0,1.4,0,2.1,0c0.7,0,1.2-0.2,1.6-0.6c0.2-0.8,0.2-1.5-0.2-1.9
	c-0.3-0.4-0.5-0.9-0.5-1.4c0.5-0.5,0.9-0.6,1-0.3c0.2,0.3,0.4,0.6,0.7,0.8c0.1-0.5,0.1-1.1-0.1-1.6c-0.2-0.6-0.3-1.1-0.4-1.6
	c-0.1-0.5-0.1-0.9,0-1.2c0.1-0.4,0.4-0.7,0.9-1c0.5,0.3,0.8,1,0.9,2.1c0.1,1.1,0.2,2.1,0.2,2.9c1.1,0,2,0.3,2.4,1
	c0.5,0.7,0.6,1.6,0.4,2.7c2,0,4.1,0,6.5,0.1c2.3,0.1,4.6,0.1,6.9,0.2c2.2,0.1,4.4,0.2,6.4,0.2c2,0.1,3.8,0.1,5.4,0.1
	c0.2-2.2,0.1-4.3-0.3-6.3c-0.4-2-0.5-4.1-0.3-6.3c1.1,0,1.7,0.6,1.7,1.9s0,2.4,0,3.6c0.2,1.1,0.3,2.1,0.4,3c0.1,0.8,0.1,1.7,0.1,2.5
	c0,0.5,0.3,0.7,1,0.5c0.7-0.2,0.9,0,0.7,0.5c3.1,0,6,0,8.7,0s5.2,0,7.7-0.1c2.4-0.1,4.9-0.1,7.3-0.2c2.4-0.1,4.9-0.1,7.5-0.2
	c0.5,0,0.9,0.2,1.1,0.5c0.2,0.4,0.6,0.5,1.1,0.5c0-0.5,0.1-0.8,0.4-0.8C112.9,44.9,113.2,44.8,113.4,44.6z M51.7,51.6
	c-0.3-0.5-0.3-0.9-0.1-1c0.3-0.2,0.3-0.3,0.1-0.5c-0.5-0.3-0.8-0.1-0.8,0.5C50.9,51.2,51.1,51.6,51.7,51.6z M69.6,52.7
	c-2.2,0.3-4.2,0.5-6.2,0.5c-1.9,0.1-3.9,0.1-5.9,0.1c-1.1,0-2.3,0-3.5-0.1c-1.2-0.1-2.2,0.5-3,1.6c3,0,6.3-0.1,9.9-0.2
	c3.6-0.2,7.1-0.2,10.4-0.2c0.8,0,1.9,0,3.2,0.1c1.3,0.1,2.2-0.3,2.7-1.2c-1.1-0.8-2.4-1.1-3.8-0.9C72,52.6,70.8,52.7,69.6,52.7z
	 M53.2,52.2c1.1-0.3,2.3-0.5,3.6-0.5c1.2-0.1,2.4-0.1,3.6-0.1c0-0.5-0.2-0.9-0.5-1c-0.4-0.2-0.5-0.3-0.5-0.5c-0.4,0-1,0-1.7,0
	c-0.7,0-1.4,0.1-2.1,0.2c-0.7,0.2-1.2,0.4-1.7,0.7C53.3,51.3,53.1,51.7,53.2,52.2z M53.8,56.6c4.1,1.1,8,1.8,11.7,2
	c3.7,0.2,7.7,0.1,11.7-0.5v-2.7C73.7,55.7,70,55.9,66,56C61.9,56.1,57.9,56.3,53.8,56.6z M53.8,250.6c0.2,0,0.4,0.1,0.5,0.2
	c0.2,0.2,0.5,0.1,1-0.2c-0.2-0.2-0.2-0.4,0.1-0.7c0.3-0.3,0.2-0.4-0.1-0.4c-0.5,0-0.9,0.1-1,0.4C54.2,250.2,54.1,250.4,53.8,250.6z
	 M58.2,251.2h2.7c0.1-0.3,0.1-0.5-0.2-0.5c-0.2,0-0.5,0-0.8,0.1c-0.3,0.1-0.6,0.1-0.9,0c-0.3-0.1-0.4-0.3-0.4-0.7
	c0.7,0.1,1.5,0.1,2.4,0c0.9-0.1,1.8-0.2,2.7-0.2c0.9-0.1,1.7-0.1,2.5-0.2c0.8-0.1,1.4,0.1,1.8,0.4c1.1-0.5,2.3-1,3.5-1.4
	c1.2-0.4,2.2-0.9,3-1.4c1.1-0.2,2.2-0.6,3.3-1.2c1-0.6,1.6-1.3,1.6-2.1c-3.9,0.5-7.8,1.3-11.7,2.3c-4,1-7.9,2.3-11.7,3.7
	c0.2,0.2,0.6,0.3,1.3,0.2c0.7-0.1,1.1,0,1.3,0.2C59,250.9,58.9,251.1,58.2,251.2C57.7,251.2,57.7,251.2,58.2,251.2z M57.6,257.8
	c1.7,0,3.1-0.1,4.5-0.2c1.3-0.2,2.4-0.7,3.2-1.5c-1.4,0-2.8,0.1-4.2,0.2C59.6,256.5,58.4,257,57.6,257.8z M61.5,250.6
	c0,0.5,0.1,0.8,0.3,0.7c0.2-0.1,0.5-0.1,0.8-0.1c0-0.5-0.1-0.8-0.4-0.7C61.9,250.6,61.7,250.6,61.5,250.6z M67,254.5
	c1.9,0.2,3.5,0.1,5-0.3c1.5-0.4,2.9-0.9,4.2-1.4c-1.9-0.2-3.6-0.2-5.2,0.1C69.5,253.1,68.1,253.7,67,254.5z M68.1,257.2
	c2.4,0,4.7,0,7-0.1c2.2-0.1,4.5-0.2,6.6-0.4c-1.1,0.1-2.4,0.1-3.7,0.1c-1.3-0.1-2.6-0.1-3.9-0.2c-1.3-0.1-2.5-0.1-3.6-0.1
	C69.4,256.5,68.6,256.7,68.1,257.2z M68.5,47.2c1.5,0.3,2.8,0.4,3.9,0.2c1.1-0.2,2.4-0.4,3.7-0.6c-1.4,0-2.8-0.1-4.2-0.2
	C70.5,46.5,69.4,46.7,68.5,47.2z M68.5,60.3c1.1,0,2.7,0.1,4.7,0.2c2,0.1,3.5-0.1,4.7-0.6c-1.1-0.5-2.6-0.6-4.5-0.3
	C71.6,59.9,70,60.1,68.5,60.3z M71.8,259.4c0.7,0.4,1.7,0.7,2.8,0.7c1.1,0.1,2.3,0,3.5-0.2c1.2-0.2,2.4-0.3,3.5-0.5
	c1.1-0.2,2.1-0.4,2.8-0.5c-2-0.3-4.1-0.3-6.3,0C75.9,259.2,73.8,259.4,71.8,259.4z M77.9,62.5c-0.5-0.2-1.2-0.4-2.1-0.6
	c-0.9-0.2-1.5-0.2-1.8,0.2c0.3,0.5,1,0.9,2,1C76.9,63.2,77.6,63,77.9,62.5z M74.6,253.9c0.5,0.8,1.3,1.2,2.3,1.2
	c1-0.1,2.1-0.1,3.2-0.1c0.8,0,1.6,0.1,2.4,0.2c0.8,0.2,1.4,0.1,2-0.2c-0.5-0.2-0.7-0.5-0.4-0.9c0.3-0.4,0.4-0.8,0.4-1.3
	c-2-0.5-3.8-0.5-5.5,0.2C77.2,253.6,75.8,253.9,74.6,253.9z M77.3,209c0,0.3,0.1,0.5,0.3,0.5c0.2,0,0.3-0.2,0.3-0.5V208v-2.7
	c0-0.3,0.1-0.5,0.2-0.6c0.2-0.1,0.2-0.3,0.2-0.5c-0.3-0.2-0.5-0.9-0.5-2c-0.1-1.1,0-2.4,0.1-3.9c0.1-1.7,0.3-3.5,0.5-5.6l0.6,1.1
	c0-0.2-0.1-0.6-0.2-1.2c-0.1-0.6,0.1-0.9,0.6-0.9c0,0.5-0.1,1-0.2,1.5c-0.2,0.5-0.2,0.9-0.2,1.3c0,0.4,0.1,0.8,0.3,1
	c0.2,0.3,0.6,0.4,1.2,0.5c-0.2-1.1-0.3-2.3-0.2-3.5c0.1-1.2,0-2.2-0.2-3c0,0.3,0,0.4-0.1,0.2c-0.1-0.2-0.2-0.4-0.5-0.6v2.2
	c-0.2,0.2-0.4,0.3-0.5,0.3c-0.1,0-0.3,0.3-0.6,0.8c0.1-0.1,0.1-0.4,0.1-0.9c-0.1-0.5-0.1-1-0.2-1.5c-0.1-0.5-0.2-1-0.2-1.5
	c-0.1-0.5,0.1-0.9,0.4-1.2l0.6,1.1c0-0.8,0.1-1.8,0.2-2.8c0.1-1,0.1-1.6-0.2-1.6c-0.1,0.4-0.2,0.8-0.2,1.2c-0.1,0.3-0.2,0.5-0.2,0.7
	s-0.1,0.1-0.3-0.2c0-1.1,0.1-2.1,0.3-2.7c0.2-0.7,0.3-1.4,0.3-2.3c-0.3,0-0.5-0.1-0.6-0.2c-0.1-0.2-0.3-0.2-0.5-0.2
	c-0.5,3.9-0.8,8.3-0.7,13.4C77.3,198.7,77.3,203.8,77.3,209z M77.9,89.4H79c0-0.3,0.1-0.5,0.2-0.6c0.2-0.1,0.2-0.3,0.2-0.5
	c-0.2-0.3-0.4-0.5-0.5-0.5c-0.2-0.1-0.5-0.1-1-0.1c0,0.3-0.1,0.6-0.2,0.9C77.5,88.8,77.6,89.1,77.9,89.4z M77.9,97
	c0.2,1.1,0.2,2.1,0.1,2.9c-0.2,0.8,0.2,1.4,1,2c0.5-0.5,0.7-1.3,0.5-2.4c-0.2-1.1-0.2-1.9,0-2.4H77.9z M77.9,250.6
	c0.9,0.5,1.7,0.4,2.2-0.5c-0.3,0-0.7,0-1.2,0.1C78.5,250.3,78.1,250.4,77.9,250.6z M78.4,178.4c0.4-0.6,0.6-1.4,0.7-2.3
	c0.1-0.9,0.1-1.8,0-2.7c-0.1-0.9,0-1.7,0.1-2.6c0.1-0.8,0.4-1.6,0.9-2.3c-0.4-0.8-0.7-1.7-0.7-2.7c-0.1-0.9,0-1.9,0.1-2.8
	c0.1-0.9,0.2-1.9,0.2-2.8s-0.2-1.8-0.6-2.7c0,1.6-0.1,3.2-0.2,5c-0.2,1.8-0.3,3.6-0.5,5.5c-0.2,1.9-0.3,3.7-0.3,5.5
	C77.9,175.4,78.1,177,78.4,178.4z M79,109.5c0-1.4,0-2.4,0.1-3.1c0.1-0.7,0.2-1.7,0.4-2.8c-0.5,0-0.8-0.1-0.7-0.3
	c0.1-0.2-0.1-0.3-0.4-0.3c0.1,0.5,0.1,1.1,0.1,1.9c-0.1,0.7-0.1,1.4-0.2,2c-0.1,0.6-0.1,1.2,0,1.7C78.3,109.1,78.6,109.4,79,109.5z
	 M79,114.5c0-0.3,0-0.9,0.1-1.9c0.1-0.9-0.2-1.4-0.7-1.4c0.3,0.8,0.4,1.5,0.2,2C78.3,113.8,78.5,114.2,79,114.5z M79,214.5
	c0.3,0.2,0.5,0.2,0.6-0.1c0.1-0.3,0.2-0.6,0.2-1c0.1-0.4,0-0.8-0.1-1.1c-0.1-0.3-0.2-0.5-0.3-0.5c-0.5,0.2-0.7,0.6-0.6,1.1
	C78.9,213.5,79,214,79,214.5z M79.5,210.1c0.5-0.5,0.8-1.2,0.7-2.2c-0.1-0.9-0.1-1.8-0.1-2.7v-7.7h-0.6c-0.2,2.4-0.4,4.5-0.5,6.4
	C78.8,205.9,78.9,208,79.5,210.1z M79,218.4c0.5,0.2,0.8-0.1,0.8-0.9c0-0.8-0.3-1.1-0.8-0.9V218.4z M79.5,222.2
	c-0.2-0.5-0.2-0.9,0-1.2c0.2-0.3,0.1-0.6-0.5-0.9C79,221.1,79.2,221.9,79.5,222.2z M84.9,52.2c-0.8,0-2,0-3.4,0
	c-1.4,0-2.1,0.5-2.1,1.6c0.1,0.2,0.4,0.3,1,0.3c0.6,0,1.2,0,1.9-0.1c0.7-0.1,1.4-0.1,2-0.2c0.7-0.1,1.2-0.1,1.6-0.1
	c4.7-0.2,9.7-0.5,15.1-1c5.4-0.5,10.5-0.9,15.5-1.2c-5.5-0.2-11.1-0.2-16.7-0.1C94.3,51.7,89.3,51.9,84.9,52.2z M80.6,109.5
	c0.5-0.5,0.7-1.4,0.5-2.7c-0.2-1.3-0.2-2.4,0.2-3.2h-1.1c0,0.4-0.1,0.9-0.2,1.6c-0.1,0.6-0.2,1.2-0.2,1.9c-0.1,0.6,0,1.2,0.1,1.6
	C79.9,109.1,80.1,109.4,80.6,109.5z M80.6,114.5c0-0.5,0.1-1.1,0.3-1.6c0.2-0.6,0.3-1.1,0.3-1.6h-1.1c0,0.2-0.1,0.8-0.2,1.8
	C79.8,114,80,114.5,80.6,114.5z M80.1,56c-0.2,0.7-0.1,1.2,0.3,1.5c0.4,0.3,0.9,0.4,1.6,0.5c0.6,0.1,1.3,0,2-0.1
	c0.7-0.1,1.2-0.2,1.6-0.2c3.6-0.3,7.7-0.6,12-0.9c4.4-0.3,8.8-0.5,13.4-0.8c4.5-0.3,9-0.5,13.4-0.8c4.4-0.3,8.4-0.5,12-0.9
	c0.1-0.3,0.1-0.5,0.1-0.6c-0.1-0.1-0.2-0.2-0.3-0.3c-0.2-0.1-0.3-0.2-0.4-0.4c-0.1-0.2-0.1-0.4,0.2-0.9c-9.4,0.5-18.7,1.1-27.9,1.6
	C98.8,54.4,89.5,55.1,80.1,56z M130.9,56.6c-6,0.2-12.4,0.5-19,0.9c-6.6,0.4-13.2,0.8-19.8,1.3c-2.2,0.2-4.3,0.3-6.4,0.3
	c-2.1,0-4,0.3-5.6,0.8c2.7,0.8,5.5,1,8.5,0.6c3-0.4,6.1-0.6,9.5-0.6c5.8-0.3,11.6-0.3,17.3,0.1c5.7,0.4,11.1,0.1,16.1-0.7
	c0.8,0,1.7-0.2,2.6-0.7c0.9-0.5,1.5-1.1,1.8-2c-0.8-0.5-1.7-0.7-2.7-0.6C132.1,56.1,131.4,56.3,130.9,56.6z M123.8,61H114
	c-5.8,0.2-11.7,0.3-17.6,0.3c-5.9,0-11.3,0.4-16.3,1.2c5,0.3,10,0.6,15.1,0.9c5.1,0.3,9.5,0.5,13.4,0.9c1.4-0.3,3-0.5,5.1-0.5
	c2,0,4.1,0,6.3-0.1c2.2-0.1,4.3-0.2,6.4-0.4c2.1-0.2,3.8-0.6,5.2-1.2c-0.8,0-1.6,0.1-2.4,0.2c-0.8,0.2-1.5,0.2-2.2,0.2
	c-0.7,0-1.3-0.1-1.8-0.3C124.6,62,124.1,61.6,123.8,61z M80.1,227.6h3.3c0-0.5,0-1.1-0.1-1.8c-0.1-0.7-0.2-1.2-0.5-1.5
	c-1.1-0.2-1.9,0-2.2,0.6C80.3,225.6,80.1,226.5,80.1,227.6z M80.1,231.5v5.5c1.6,0.5,2.8,0.3,3.7-0.6c-1,0-1.6-0.4-1.6-1.1
	c0.2-0.5,0.4-1.1,0.7-1.6c0.3-0.6,0.4-1.3,0.4-2.1C82.2,230.9,81.1,230.9,80.1,231.5z M80.6,101.4c0.8-0.8,1.1-2.1,0.9-3.9
	c-0.3-1.8-0.5-3.2-0.9-4.4C80.1,95.9,80.1,98.7,80.6,101.4z M80.6,217.8c0.5,0,1,0.1,1.3,0.2c0.4,0.2,0.6,0.1,0.9-0.2
	c0-0.5-0.1-0.9-0.2-1.2c-0.1-0.3-0.6-0.4-1.4-0.4c0,0.5-0.2,0.9-0.5,1S80.4,217.6,80.6,217.8z M81.2,165.3c0.2-0.2,0.3-0.6,0.2-1.3
	c-0.1-0.7,0-1.1,0.2-1.3h-1.1c0.3,0.2,0.4,0.6,0.3,1.1C80.8,164.3,80.9,164.8,81.2,165.3z M80.6,220v2.2c0.5,0.3,1,0.4,1.4,0.2
	c0.4-0.2,0.9-0.2,1.4-0.2c0-0.5-0.1-1-0.2-1.5c-0.1-0.5-0.4-0.7-0.9-0.7c0-0.1-0.3-0.2-0.9-0.2C81,219.8,80.8,219.9,80.6,220z
	 M82.3,209.7c0-0.4,0-1,0-1.9c0-0.8-0.1-1.7-0.2-2.7c-0.1-0.9-0.2-1.8-0.3-2.7c-0.1-0.9-0.3-1.6-0.6-2.1c0.1,0.8,0.1,1.7,0,2.7
	c-0.1,1-0.2,1.9-0.3,2.8c-0.1,0.9-0.1,1.7,0.1,2.3C81.1,208.9,81.6,209.4,82.3,209.7z M81.2,131.4c0.3-0.3,0.5-0.8,0.5-1.4
	c0.1-0.6,0.1-1.3,0-2c-0.1-0.7-0.1-1.4-0.2-2c-0.1-0.6-0.2-1-0.3-1.2c-0.3,0.8-0.4,1.9-0.2,3C81.1,129.1,81.2,130.3,81.2,131.4z
	 M81.7,168.1V167h-0.5c-0.3,0.2-0.4,0.4-0.2,0.7C81.2,168,81.4,168.1,81.7,168.1z M81.7,171.9c0-0.2,0.1-0.5,0.2-0.9
	c0.1-0.4-0.1-0.4-0.6-0.2c-0.3,0-0.4,0.2-0.2,0.5C81.2,171.7,81.4,171.9,81.7,171.9z M81.7,160.9c0-0.5,0.1-1.2,0.2-2
	c0.1-0.8-0.1-1.2-0.6-1.2c0.1,0.4,0.1,0.8,0.1,1.2c-0.1,0.4-0.1,0.8-0.2,1.1c-0.1,0.3-0.1,0.5-0.1,0.7
	C81,160.9,81.2,160.9,81.7,160.9z M81.2,241.9c0.2,0,0.4-0.1,0.5-0.2c0.2-0.2,0.5-0.2,1-0.2c0-0.3,0.1-0.6,0.3-0.9
	c0.2-0.3,0.3-0.5,0.3-0.9c-0.3,0-0.5-0.1-0.6-0.2c-0.1-0.2-0.3-0.2-0.5-0.2c0,0.5-0.3,0.9-0.8,1.1C81,240.5,80.9,241,81.2,241.9z
	 M81.7,150.6c0.3,0,0.5-0.3,0.5-1c0-0.7-0.2-0.9-0.5-0.7c0,0.3-0.1,0.7-0.4,1.1C81,150.4,81.1,150.6,81.7,150.6z M124.9,45
	c-2.2,0.3-5.1,0.5-8.7,0.6c-3.6,0.1-7.4,0.2-11.6,0.2c-4.1,0.1-8.3,0.1-12.4,0.2c-4.2,0.1-7.9,0.3-11.1,0.6
	c10.4,0,20.2-0.1,29.4-0.2c9.2-0.1,17.6-0.4,25.3-0.9c-2.2,0-4.3,0-6.2-0.1C127.6,45.5,126.1,45.3,124.9,45z M81.2,214.5h1.6
	c-0.2-0.5-0.3-1-0.2-1.6c0.1-0.5,0-0.9-0.2-1.1c-0.4,0.3-0.8,0.3-1.1,0V214.5z M81.7,154.4v-2.2c-0.2,0-0.3,0.4-0.3,1.1
	C81.3,154,81.4,154.4,81.7,154.4z M83.8,67.5c3,0.5,5.9,0.7,8.7,0.4c2.8-0.3,5.6-0.4,8.3-0.4c4.7-0.3,9.5-0.4,14.4-0.2
	c4.9,0.2,9.6,0.2,14,0.2c0.3,0,0.8,0.1,1.4,0.2c0.6,0.1,1.2,0.1,1.9,0c0.6-0.1,1.2-0.3,1.6-0.6c0.5-0.3,0.6-0.9,0.5-1.7
	c-4.4-0.1-8.5-0.2-12.5-0.2c-4,0-8,0-12.1,0c-4.1,0-8.4-0.1-13-0.2c-4.5-0.1-9.5-0.4-14.9-0.8c0.2,0.5,0.4,1.1,0.5,1.8
	C83,66.7,83.3,67.2,83.8,67.5z M82.3,247.9c0.2,0,0.6,0,1.2,0.1c0.6,0.1,0.9-0.2,0.9-0.7c-0.3-0.2-0.8-0.2-1.3-0.1
	C82.6,247.4,82.3,247.6,82.3,247.9z M106.3,68.6c-2.5,0-5.4,0.2-8.6,0.5c-3.2,0.4-6.2,0.5-8.9,0.5c-1.1-0.3-2.2-0.6-3.1-0.9
	c-0.9-0.3-1.6,0.2-1.9,1.3c4.9,0.3,9.5,0.6,13.8,0.9c4.3,0.3,8.5,0.6,12.6,0.8c4.1,0.2,8.1,0.3,12.1,0.4c4,0.1,8.1-0.1,12.4-0.4
	c-0.3-0.5-0.4-1.1-0.3-1.9c0.1-0.7,0-1.2-0.3-1.4c-4.1,0.2-8.4,0.3-13,0.2C116.5,68.7,111.5,68.6,106.3,68.6z M95.9,73
	c0,0.1,0.3,0.2,0.9,0.2c0.6,0.1,1.2,0.1,2,0.1c0.8,0,1.6,0,2.4,0c0.8,0,1.5,0.1,1.9,0.2c-0.3,0.3-0.3,0.6-0.1,0.9
	c0.3,0.3,0.3,0.5,0.1,0.9c-1.4-0.1-2.9-0.3-4.6-0.5c-1.7-0.2-3.4-0.4-5.2-0.5c-1.7-0.2-3.4-0.2-4.9-0.2c-1.6,0-2.9,0.1-3.9,0.2
	c8.2,1.1,16.2,1.7,23.8,1.8c7.7,0.1,15.2-0.2,22.6-0.7c0.5,0,1.2,0.1,2.1,0.3c0.9,0.2,1.5-0.3,1.8-1.4c-3-0.4-5.9-0.6-8.5-0.6
	c-2.7,0-5.2,0-7.7,0.1c-2.5,0.1-5,0.1-7.4,0.2c-2.4,0.1-5,0-7.6-0.3h0.6c-0.8-0.5-2.1-0.8-3.9-0.9C98.5,72.5,97,72.7,95.9,73z
	 M86,78.5c-0.2,0.2-0.5,0.3-0.9,0.2c-0.4-0.1-0.6,0-0.6,0.2c0.5,0,0.9,0.1,1.2,0.2C85.9,79.2,86,79,86,78.5z M109.6,103
	c-3.9,0-7.8,0.1-12,0.3c-4.1,0.2-8.4,0.3-12.7,0.3c0,0.5-0.1,1-0.2,1.3c-0.2,0.4-0.2,0.8-0.2,1.3h51.4c0-0.8-0.1-1.4-0.2-1.6
	c-0.2-0.3-0.1-0.8,0.2-1.6H109.6z M123.2,107.4c-5.7,0-11.6,0-17.7,0.1c-6,0.1-11.8,0.2-17.3,0.5c-0.5,0-1.2,0-2.1-0.1
	c-0.9-0.1-1.4,0.3-1.6,1.2c0.1,0.5,0.3,0.9,0.7,1c0.4,0.2,0.8,0.2,1.2,0.1c0.5-0.1,0.9-0.2,1.3-0.4c0.4-0.2,0.8-0.2,1.1-0.2
	c5.7,0,11.6,0.1,17.7,0.2c6.1,0.2,12.7,0.1,19.9-0.2c0.5,0,1.1,0.1,1.9,0.2c0.7,0.1,1.2-0.1,1.4-0.6c-0.8-0.8-1.9-1.2-3-1.2
	C125.5,107.8,124.4,107.7,123.2,107.4z M117.7,168.1c-1.1,0.5-2.3,0.7-3.6,0.6c-1.2-0.1-2.6-0.2-4.1-0.2c-1.7,0-3.6,0.2-5.7,0.5
	c-2.1,0.4-4.4,0.5-6.8,0.5c-2.2,0-4.5-0.1-6.8-0.3c-2.3-0.2-4.1,0.1-5.2,0.9c0.2-0.3,0-0.2-0.5,0.5c-0.6,0.6-0.6,1.2-0.1,1.7
	c9.4,0,17.9-0.1,25.6-0.2c7.7-0.1,15.4-0.4,23.1-0.9v-2.8c-2.7-0.2-5.4-0.2-8.1,0C122.8,168.8,120.2,168.6,117.7,168.1z M135.9,98.1
	c0.1-0.5,0-0.9-0.3-1.2c-0.3-0.3-0.7-0.5-1.2-0.7c-0.5-0.2-1-0.2-1.5-0.2c-0.5,0-0.8,0-0.9,0c-3.4-0.3-7.2-0.6-11.2-0.9
	c-4-0.3-8.1-0.5-12.3-0.7c-4.2-0.2-8.3-0.2-12.3-0.2c-4.1,0.1-7.8,0.3-11.2,0.7c-0.4,1-0.4,2.3,0,3.7c6,0,12-0.2,17.9-0.6
	c5.9-0.4,11.6-0.2,17.1,0.6c0.8-0.3,1.7-0.4,2.7-0.3c0.9,0.1,1.9,0.2,2.8,0.3c0.9,0.1,1.8,0.2,2.7,0.2c0.8,0,1.6-0.2,2.3-0.6
	c0.1,0,0.4,0.1,1,0.2c0.6,0.2,1.2,0.3,1.9,0.4c0.7,0.1,1.3,0.1,1.8,0.1C135.6,98.8,135.9,98.6,135.9,98.1z M130.9,86.6
	c0-0.3-0.2-0.6-0.6-0.8c-0.2-0.1-0.4-0.2-0.5-0.3c-3-0.4-6.5-0.7-10.3-0.8c-3.9-0.1-7.8-0.1-11.8,0c-4,0.1-7.9,0.2-11.8,0.4
	c-3.9,0.2-7.3,0.3-10.3,0.4c0.2-1.4,0.7-2,1.4-1.8c0.7,0.2,1.5,0.2,2.3,0.2c7.2-0.3,14.3-0.4,21.5-0.2c7.1,0.2,13.8,0.4,20.1,0.6
	c0-0.7,0.2-1.2,0.6-1.6v1.6h4.4c-0.3-0.5-0.5-1.1-0.7-1.6c-0.2-0.6-0.1-1.1,0.1-1.6c-1.4,0-2.3-0.1-3-0.3c-0.6-0.2-1.1,0.3-1.4,1.4
	c0-0.5-0.3-0.8-0.9-0.9c-0.6-0.1-1-0.2-1.3-0.2c-1.7-0.2-3.4-0.3-5.2-0.2c-1.8,0.1-3.5,0-5.2-0.2c-6.9-0.3-12.9-0.4-18.2-0.3
	c-5.3,0.1-10.3,0-15.2-0.3c-0.2,0.8-0.3,1.9-0.2,3.3c0.1,1.4,0.2,2.3,0.2,2.8c9.1,0.5,17.7,1,25.9,1.5c8.2,0.5,16.5,0.7,25.1,0.7
	v-2.2c-0.2,0-0.6,0-1.1-0.1c-0.5-0.1-1.1-0.1-1.6-0.1c-0.6,0-1.1,0-1.6,0.1C131.1,86.1,130.9,86.3,130.9,86.6z M129.8,110.6
	c-7.7,0-15.4,0.1-23,0.3c-7.7,0.2-14.9,0.3-21.8,0.3c-0.2,0.5-0.3,1-0.2,1.4c0.1,0.4,0.2,1,0.2,1.9c4.4,0,9.1,0.1,14.1,0.2
	c5.1,0.1,10.2,0.1,15.4-0.2c2.5-0.3,5.1-0.4,7.9-0.2c2.8,0.2,5.2,0.1,7.4-0.5c0.4,0,0.6-0.2,0.6-0.5c0.5,0.8,1.4,1.1,2.5,0.9
	c1.1-0.3,2.1-0.4,3-0.4c0-0.2,0.1-0.6,0.2-1.3c0.1-0.7,0.1-1.1-0.2-1.3c-0.8,0.2-1.8,0.2-3-0.1c-1.1-0.3-2-0.2-2.5,0.1
	c0,0.2,0.1,0.5,0.2,1c0.1,0.5,0.1,0.9-0.2,1.2c0-0.5-0.1-1-0.3-1.4C129.9,111.6,129.8,111.2,129.8,110.6z M122.7,178.4
	c-3,0.2-6,0.4-8.8,0.5c-2.9,0.1-5.8,0.2-8.8,0.4c-3,0.2-6.2,0.3-9.5,0.5c-3.3,0.2-6.8,0.3-10.7,0.4c-0.2,0.5-0.3,1-0.2,1.3
	c0.1,0.4,0.2,0.8,0.2,1.3c6.4,0,12.4-0.1,18.2-0.2c5.8-0.2,11.6-0.2,17.4-0.2c2.4,0,4.8-0.1,7.3-0.2c2.4-0.1,4.8-0.4,7-0.9
	c0-0.3-0.1-0.6-0.3-0.9c-0.2-0.3-0.3-0.5-0.3-0.9c-1.9-0.5-3.8-0.8-5.9-0.9C126.3,178.5,124.4,178.4,122.7,178.4z M85.6,123.8
	c0.5,0,0.7-0.4,0.5-1.2c-0.2-0.8-0.2-1.3,0-1.5h-1.1c0,0.2,0,0.7-0.1,1.5C84.8,123.4,85,123.8,85.6,123.8z M84.9,87.7v2.2
	c4.8-0.1,9.1-0.1,12.9,0.1c3.8,0.2,7.4,0.3,10.9,0.4c3.4,0.1,6.9,0.1,10.4,0c3.5-0.1,7.3-0.4,11.3-0.9c-7.2-0.3-14.4-0.6-21.7-0.9
	C101.4,88.3,93.5,88,84.9,87.7z M111.2,91.6c-1.4-0.3-3.1-0.4-5.2-0.2c-2.1,0.2-4,0.1-5.7-0.5c-1.7,0-3.5,0-5.5,0.1
	c-2,0.1-3.8,0.2-5.5,0.5c-0.8,0-1.8-0.1-2.8-0.2c-1-0.2-1.6,0.3-1.6,1.3c2.5,0.5,4.9,0.7,7.2,0.4c2.3-0.3,4.6-0.4,7-0.4
	c5.8,0.2,11.7,0.5,17.6,0.9c5.9,0.4,12.4,0.6,19.6,0.6c-0.1-0.3-0.1-0.7-0.1-1.2c0.1-0.5,0.1-0.9,0.1-1.4s-0.1-0.9-0.3-1.2
	c-0.2-0.4-0.6-0.5-1.2-0.5c-0.5,0-0.7,0.3-0.4,0.9c0.3,0.6,0,0.9-0.7,0.9c-3.3-0.3-7-0.3-11-0.1C118.7,91.8,114.8,91.8,111.2,91.6z
	 M129.8,100.8c0-0.3-0.2-0.5-0.5-0.5c-0.9-0.4-2.2-0.7-3.9-0.8c-1.7-0.1-3.4-0.2-5.2-0.2c-1.8,0-3.6,0-5.3,0s-3.1-0.1-4.1-0.2v-0.6
	c-1.7,0.4-3.6,0.7-5.7,0.8c-2.1,0.1-4.4,0.2-6.7,0.2c-2.3,0-4.7,0.1-7,0.2c-2.3,0.2-4.5,0.5-6.3,1v1.1c5.8,0.3,11.7,0.3,17.6,0.1
	c5.9-0.3,12.4-0.3,19.6-0.1c2.2,0,4.5-0.1,6.9-0.2c2.4-0.1,4.7-0.6,6.9-1.4c-1.1,0.2-2.2,0.2-3.3-0.2
	C131.5,99.9,130.6,100.1,129.8,100.8z M109.6,124.8c-3.3-0.2-6.7-0.4-10.2-0.6c-3.5-0.2-7-0.2-10.5,0.2c-0.3,0.2-0.8,0.4-1.3,0.5
	c-0.6,0.1-0.9,0.3-0.9,0.6c-0.3,0-0.5-0.2-0.6-0.5c-0.1-0.3-0.3-0.4-0.5-0.2c0,0.5-0.1,1-0.3,1.4c-0.2,0.4-0.3,1-0.3,1.9
	c7.5,0.3,15.2,0.3,23,0.1c7.8-0.3,15.8-0.3,24.1-0.1c0-0.5-0.1-1-0.2-1.3c-0.1-0.4-0.1-0.8,0.2-1.3c-4.1,0-7.9-0.1-11.6-0.3
	C116.8,125,113.2,124.8,109.6,124.8z M93.7,152.2c-1.4,0-2.9,0-4.5-0.1c-1.7-0.1-3.1,0.2-4.2,0.7c0,0.6,0.2,1,0.6,1.2
	c0.4,0.2,0.9,0.3,1.5,0.3c0.6,0,1.2-0.1,1.8-0.2c0.6-0.2,1.1-0.2,1.6-0.2c1.7,0,3.5,0.1,5.5,0.2c2,0.2,4,0.2,6,0.2
	c5,0,10.3,0.2,15.8,0.5c5.5,0.3,10.6,0.4,15.3,0.2c0.4,0,0.9,0,1.6,0c0.6,0,1.2-0.1,1.7-0.2c0.5-0.2,1-0.4,1.3-0.8
	c0.4-0.4,0.5-1,0.4-1.8c-4,0-7.7,0-11.3-0.1c-3.6-0.1-7.2-0.1-10.7-0.1c-3.5,0-7.1,0-10.8,0C101.6,152,97.7,152.1,93.7,152.2z
	 M118.8,158.3c-5.5,0-11.2-0.1-16.9-0.2c-5.8-0.2-11.4-0.1-16.9,0.2v2.7c2,0.5,4,0.5,6.1,0.1c2.1-0.5,4.1-0.9,5.9-1.2
	c5-0.2,9.9-0.2,14.8,0c4.8,0.2,9.8,0.1,14.8-0.5c-0.5-0.8-1.5-1.2-3-1.2C122.1,158.3,120.5,158.3,118.8,158.3z M132,160.5
	c-0.2,0.2-0.7,0.4-1.4,0.5c-0.7,0.1-1.4,0.3-1.9,0.6c-1.4-0.8-2.9-1.1-4.7-0.9c-1.8,0.2-3.5,0.3-5.2,0.3c-2.2,0.3-4.5,0.4-6.8,0.2
	c-2.3-0.2-4.6-0.2-6.8-0.2c-3.3,0-6.8,0.3-10.4,1c-3.6,0.7-6.9,0.9-9.9,0.7v2.2c4.7-0.3,9.3-0.5,13.8-0.5c4.5,0,9,0,13.3,0
	c4.3,0,8.5-0.1,12.5-0.2c4-0.2,7.8-0.5,11.3-1c-0.5-0.8-0.6-1.3-0.2-1.3c0.4-0.1,0.4-0.5,0.2-1.3c-0.5,0-1.2-0.1-2.1-0.2
	C132.9,160.1,132.3,160.2,132,160.5z M131.5,164.8c-2.2,0-4.4,0.1-6.6,0.3c-2.2,0.2-4.6,0.5-7.1,0.8c-5.2,0-10.7,0-16.6-0.1
	c-5.8-0.1-11.2,0.3-16.2,1.2v1.1c7.7,0.2,15.4,0.1,23.1-0.4c7.7-0.5,15.7-0.7,23.9-0.7c0-0.3-0.1-0.6-0.4-0.8
	c-0.3-0.2-0.1-0.3,0.4-0.3c0.5,0.2,1.1,0.2,1.7,0c0.6-0.2,1.4-0.1,2.2,0.5c0.3-0.6,0.3-1.1-0.2-1.3c-0.4-0.3-0.9-0.4-1.5-0.5
	c-0.6-0.1-1.1,0-1.7,0.1C131.9,164.8,131.6,164.8,131.5,164.8z M129.3,176.2c-7.5-0.8-14.8-1.4-22-1.6c-7.2-0.2-14.6-0.1-22.3,0.5
	v3.3c4.7-0.3,9.1-0.5,13.1-0.5c4.1-0.1,8-0.1,12-0.2c3.9-0.1,7.8-0.1,11.7-0.1s8-0.1,12.4-0.3c-0.1-0.5-0.3-0.9-0.7-1.1
	c-0.4-0.2-0.8-0.3-1.2-0.3s-1,0.1-1.5,0.2C130.2,176.2,129.7,176.2,129.3,176.2z M88.2,184.5c-0.5,0-1.1,0-1.8-0.1
	c-0.7-0.1-1.2,0.3-1.5,1.2c7.2,0,14.3,0.2,21.2,0.5c7,0.4,13.7,0.5,20.3,0.5c1.5,0.2,2.8,0.3,4.1,0.2c1.3-0.1,2.7-0.5,4.1-1.3v-1.1
	c-7.5-0.5-15.3-0.7-23.3-0.6C103.5,184,95.7,184.2,88.2,184.5z M84.9,187.8v3.3c4.8-0.1,9.4-0.2,13.7-0.2s8.6,0,12.7,0
	c4.1,0,8-0.1,11.9-0.2c3.9-0.1,7.7-0.4,11.6-0.8v-1.7c-7.7,0-15.9-0.3-24.5-0.9C101.6,186.8,93.2,187,84.9,187.8z M84.9,192.6v2.8
	c4.3-0.1,8.6-0.1,13-0.1c4.4,0.1,8.7,0.2,12.9,0.3c4.2,0.2,8.3,0.3,12.1,0.4c3.9,0.1,7.4,0.1,10.8-0.2c0.2-0.5,0.4-1,0.7-1.4
	c0.3-0.4,0.4-1,0.4-1.9c-8.9-0.5-17.3-0.7-25.4-0.5C101.3,192.3,93.2,192.4,84.9,192.6z M112.9,197c-4.7-0.2-9.3-0.4-14-0.5
	c-4.6-0.2-9.3,0-14,0.5v2.8c0.8-0.3,1.7-0.3,2.7,0c1,0.3,1.9,0.5,2.7,0.5c2.2,0.3,4.5,0.3,7,0s4.7-0.5,6.7-0.5
	c2.3-0.1,4.7-0.1,7.3-0.1c2.6,0.1,5.2,0.1,7.7,0.2c2.5,0.1,4.9,0.2,7.3,0.2c2.3,0.1,4.4-0.1,6.2-0.4c0-0.3,0.4-0.5,1.1-0.5
	c0.7,0,1.1-0.4,1.1-1.2c-3.3-0.8-6.8-1.1-10.5-0.9C120.5,197.4,116.8,197.3,112.9,197z M85.6,144.5l-0.3,0.2c-0.1,0.1,0,0.3,0.3,0.5
	H86c6.9,0.2,13.8,0.4,20.8,0.6c7,0.2,13.9,0.2,20.8-0.2c-6.9-0.5-13.7-0.8-20.4-0.7C100.5,145,93.3,144.8,85.6,144.5z M85.6,143
	c6.9,0.2,13.6,0.4,20.3,0.5c6.7,0.2,13,0.5,19.1,1c0.3-0.5,0.8-0.8,1.4-0.9c0.6-0.1,1.3-0.1,2-0.1c0.7,0.1,1.5,0.1,2.3,0.1
	s1.4-0.2,2-0.6c-1.1,0-1.6-0.3-1.2-0.9c0.3-0.6,0.7-1,1.2-1.2c-8,0.2-16.1,0.3-24.1,0.2c-8.1-0.1-15.7-0.3-22.9-0.9
	c0,0.8-0.1,1.4-0.2,1.6C85.2,142.1,85.2,142.5,85.6,143z M119.5,200.3c-2.9,0-5.8,0.1-8.7,0.4c-2.9,0.3-5.7,0.5-8.5,0.7
	c-2.8,0.2-5.6,0.3-8.4,0.3s-5.6-0.3-8.3-0.8c-0.3,0.8-0.4,1.7-0.2,2.7c0.2,1,0.4,2.1,0.6,3.2c1.2-0.3,2.6-0.5,4.1-0.5
	c1.5-0.1,3-0.1,4.5-0.1c1.6,0,3.1-0.1,4.6-0.2c1.5-0.1,2.9-0.4,4.3-0.8c-3.3,0-6.4,0.1-9.2,0.4c-2.8,0.3-5.6,0.1-8.3-0.4
	c0.5-0.5,1.2-0.8,2.2-0.9c0.9-0.1,1.7-0.2,2.2-0.2c7.5-0.3,15-0.3,22.6,0.2c7.5,0.4,14.6,0.4,21.2-0.2c0.3-0.3,0.4-0.7,0.3-1.2
	c-0.1-0.5,0-1.2,0.3-2c-1.7,0-3.1,0-4.4,0c-1.2,0-2.4,0-3.5-0.1c-1.1-0.1-2.2-0.1-3.4-0.2C122.2,200.6,120.9,200.5,119.5,200.3z
	 M132,119.4c0.3,0.3,0.9,0.4,1.8,0.3c0.9-0.1,1.6,0,2.1,0.3c0.2-0.5,0.3-1.1,0.2-1.6c-0.1-0.6-0.2-1.1-0.2-1.6
	c-8.5-1-17.1-1.4-25.6-1.1c-8.5,0.3-16.8,0.5-24.7,0.5c-0.3,0.3-0.3,0.7-0.1,1.2c0.3,0.5,0.3,1,0.1,1.6c1.2,0.6,2.9,1,5.1,1.1
	c2.1,0.1,4.4,0.1,6.9,0c2.4-0.1,4.9-0.2,7.3-0.3c2.4-0.1,4.6,0,6.3,0.3c1,0.1,2.4,0.2,4.2,0.2c1.8,0,3.6,0,5.5-0.1
	c1.9-0.1,3.8-0.1,5.7-0.2c1.9-0.1,3.5-0.3,4.8-0.5c-0.3-0.5-0.5-1-0.6-1.3c-0.1-0.4,0.1-0.8,0.6-1.3c0,0.5,0,1,0.1,1.3
	C131.6,118.4,131.7,118.9,132,119.4z M129.3,133.1c-3.5,0.1-7.3,0.1-11.2-0.1c-4-0.2-7.9-0.3-11.7-0.4c-3.9-0.1-7.6-0.2-11.2-0.2
	c-3.6,0-6.8,0.2-9.6,0.6c-0.3,1.1,0,1.8,1,2c1,0.2,1.7,0.2,2.3,0.2c6,0,12.4-0.1,19.1-0.3c6.7-0.2,12.9-0.3,18.6-0.3
	c0.4,0,0.9,0.1,1.5,0.2c0.6,0.1,1.2,0.2,1.8,0.2c0.6,0,1.2-0.1,1.6-0.3c0.5-0.2,0.9-0.6,1.2-1.1c-0.3-0.5-0.9-0.7-1.7-0.6
	C130,133.1,129.5,133.1,129.3,133.1z M87.1,129.8h-1.6v1.1c0,0.2,0.4,0.3,1.1,0.3c0.7,0,1.1-0.1,1.1-0.3
	C87.3,130.9,87.1,130.6,87.1,129.8z M131.5,135.8H85.6v3.9c1.7-0.3,3.4-0.4,5.2-0.2c1.8,0.2,3.7,0.2,5.7,0.2
	c6.6,0.2,13.2,0.3,19.8,0.2c6.7-0.1,13.2-0.3,19.5-0.9v-2.2c-0.3-0.2-0.6-0.4-0.9-0.7c-0.3-0.3-0.7-0.4-1.2-0.4
	c-0.5,0-0.8,0.3-0.8,0.9c0,0.6-0.1,0.9-0.3,0.9c0-0.3-0.1-0.7-0.2-1.1C132.3,136,132,135.8,131.5,135.8z M85.6,149.5v1.1H121
	c4.4,0.1,9,0.2,13.7,0.2c4.8,0.1,9.6,0.1,14.3,0.2c4.7,0.1,9.3,0.2,13.7,0.3c4.4,0.1,8.3,0.2,11.9,0.3c0.3,0,0.7,0.1,1.2,0.2
	c0.5,0.2,1.1,0.3,1.6,0.3c0.6,0.1,1.1,0,1.5-0.2c0.4-0.2,0.6-0.5,0.6-1c-2-0.5-4.6-0.8-7.7-0.9c-3.2-0.1-6.4-0.2-9.8-0.2
	c-12.1,0-24.6-0.1-37.6-0.3c-13-0.2-25.8-0.5-38.4-0.8C85.7,148.9,85.6,149.1,85.6,149.5z M124.9,156.6c1.1,0.3,1.6,0.4,1.5,0.2
	C126.3,156.6,125.8,156.6,124.9,156.6c-5.8,0-11.7-0.2-17.5-0.5c-5.8-0.4-11.5-0.5-17-0.5c-0.8,0-1.8,0-2.9-0.1
	c-1.1-0.1-1.7,0.2-2,0.7c6.6,0.5,13.2,0.8,19.8,0.9C112.1,157,118.6,156.9,124.9,156.6z M129.8,243.6c-2.2-0.3-4.3-0.5-6.2-0.5
	c-2-0.1-4.1-0.1-6.2-0.1c-3.9,0-7.7,0-11.6-0.1c-3.9-0.1-7.5-0.2-10.9-0.4c-0.6,0-1.4,0-2.3-0.1c-0.9-0.1-1.9,0-2.8,0.1
	c-0.9,0.1-1.8,0.3-2.5,0.6c-0.7,0.3-1.2,0.8-1.6,1.6c0.5-0.3,0.8-0.3,0.7,0c-0.1,0.3,0.1,0.5,0.4,0.5c0.8,0,1.4-0.3,1.6-0.8
	c0.2-0.5,0.6-0.8,1.1-0.8c0.5,0,0.8,0.3,0.9,0.8c0.1,0.5,0.3,0.8,0.9,0.8c7.9-0.2,15.6-0.2,23.2,0c7.5,0.2,15.3,0.1,23.2-0.5
	c-0.8-1.1-2-1.6-3.6-1.4C132.3,243.5,130.9,243.6,129.8,243.6z M124.3,253.9c-0.8,0-1.6-0.2-2.4-0.5c-0.8-0.4-1.6-0.5-2.4-0.5
	c-5.3-0.2-10.8-0.1-16.6,0.2c-5.7,0.4-11.4,0.3-16.9-0.2c-0.2,0.3-0.3,0.8-0.3,1.3c0,0.6,0.1,0.9,0.3,0.9c4.4-0.1,8.8-0.1,13.3-0.1
	c4.5,0.1,8.9,0.1,13.4,0.2c4.4,0.1,8.8,0.1,13,0.1c4.3-0.1,8.4-0.3,12.3-0.7c-2-0.5-4.1-0.7-6.5-0.5S126.8,254.2,124.3,253.9z
	 M134.8,250.6c-9.2-0.2-17.9-0.4-26.1-0.5c-8.2-0.1-15.8-0.3-22.7-0.6l-0.2,0.2c0,0.2,0.1,0.4,0.2,0.5v0.5c8.5,0.5,17.2,0.9,26,1.2
	c8.8,0.3,17.5,0.2,26-0.1c0-0.8-0.4-1.2-1.2-1.2C136,250.6,135.3,250.6,134.8,250.6z M86,211.9c-0.2,0.8-0.1,1.5,0.3,1.9
	c0.4,0.4,0.5,0.9,0.3,1.4c4.1,0.2,8,0.2,12-0.2c3.9-0.3,7.9-0.5,12.1-0.5c3.5,0,7.4-0.1,11.7-0.2c4.3-0.1,8.2-0.4,11.7-0.9v-1.6
	c-8.4-0.3-16.4-0.5-24-0.6C102.6,211.1,94.6,211.3,86,211.9z M130.9,121.1h-6.6H86c0,0.2,0.1,0.6,0.3,1.1c0.2,0.5,0.3,1,0.3,1.6
	c7.2-0.2,14.7-0.2,22.5,0.1c7.8,0.3,15.4,0.2,22.8-0.1c0-0.2,0-0.5-0.1-0.8c-0.1-0.3,0.2-0.6,0.7-0.8c0,0.2,0,0.5,0.1,0.9
	c0.1,0.4,0.2,0.6,0.4,0.6c0.5,0,0.9,0.1,1.2,0.2c0.3,0.2,0.8,0.1,1.6-0.2c-0.3-0.5-0.4-1-0.3-1.6c0.1-0.5,0-0.9-0.3-1.1
	c-0.2,0.2-0.7,0.2-1.6,0c-0.8-0.2-1.4-0.1-1.7,0.5c-0.2,0-0.4-0.1-0.5-0.2C131.4,121.2,131.2,121.1,130.9,121.1z M131.5,208
	c-0.8,0-1.6-0.1-2.4-0.2c-0.8-0.2-1.4-0.2-2-0.2c-6.9,0-13.2-0.1-19.1-0.2c-5.8-0.1-11.9,0.1-18.1,0.6c-0.5,0-1.2,0-2.1-0.1
	c-0.9-0.1-1.5,0.3-1.8,1.2c0,0.3,0.2,0.4,0.7,0.4c0.5-0.1,0.4,0.2-0.1,0.7c3.4-0.3,7.1-0.4,11.1-0.4c4,0.1,8,0.1,12.3,0.2
	c4.2,0.1,8.4,0.1,12.7,0c4.2-0.1,8.3-0.4,12.1-0.9c0-0.8-0.4-1.2-1.2-1.2C132.7,207.9,132,208,131.5,208z M90.4,216.7
	c-0.5,0-1.3-0.1-2.3-0.3c-1-0.2-1.7,0.3-2,1.4c8.5,0.5,16.8,0.8,24.9,0.9c8.1,0.1,15.8,0.2,23.2,0.2v-2.7c-3.3-0.3-6.8-0.5-10.5-0.5
	c-3.7,0-7.5,0.1-11.3,0.2c-3.9,0.1-7.7,0.2-11.4,0.4C97.1,216.5,93.6,216.6,90.4,216.7z M112.3,259.4c-4.6,0-8.8-0.2-12.7-0.5
	c-3.9-0.3-8.4-0.3-13.6,0c4.2,0.2,8.6,0.4,13.4,0.6C104.1,259.7,108.4,259.7,112.3,259.4z M86.7,220c0,0.8,0.1,1.4,0.2,1.8
	c0.1,0.4,0.1,0.7-0.2,1h43.1c0.3,0,0.7,0.1,1.2,0.2c0.5,0.1,1,0.1,1.5,0.1c0.5-0.1,0.9-0.2,1.2-0.5c0.3-0.3,0.3-0.8,0-1.5
	c-3.9-0.3-7.6-0.5-11.3-0.7c-3.7-0.2-7.4-0.3-11.2-0.4c-3.8-0.1-7.7-0.2-11.7-0.2C95.4,219.8,91.1,219.9,86.7,220z M86.7,224.4v2.8
	c7.7,0,15.7-0.1,23.9-0.4c8.2-0.3,15.9-0.5,23.1-0.7c-0.3-0.3-0.8-0.4-1.3-0.4c-0.6,0.1-0.9-0.2-0.9-0.7c0.1-0.3,0.3-0.4,0.5-0.3
	c0.3,0.1,0.5,0.2,0.7,0.2c0.2,0.1,0.4,0.1,0.6,0.1c0.2,0,0.3-0.2,0.3-0.6c-6.6-0.5-13.8-0.6-21.8-0.4
	C103.9,224.2,95.5,224.4,86.7,224.4z M127.6,228.3c-3.9,0-7.4,0-10.8-0.1c-3.3-0.1-6.6-0.1-9.8,0c-3.2,0.1-6.5,0.2-9.7,0.3
	c-3.2,0.2-6.6,0.4-10.2,0.9c3.1,0.4,6.4,0.6,9.8,0.6c3.4,0,6.8-0.1,10.2-0.2c3.4-0.2,6.9-0.3,10.3-0.4c3.4-0.1,6.8-0.1,10.2,0
	c0.5,0,1.1,0.1,1.9,0.2c0.7,0.2,1.4,0.3,2,0.3c0.6,0.1,1.2,0,1.7-0.2c0.5-0.2,0.8-0.5,0.9-1c-0.8-0.8-1.9-1.1-3-0.9
	C129.9,228.1,128.7,228.3,127.6,228.3z M128.7,230.9c-3.1-0.1-6.5-0.2-10-0.2c-3.5,0-7.1,0.1-10.7,0.2c-3.6,0.1-7.2,0.2-10.8,0.4
	s-7,0.4-10.1,0.7c0.5,0.5,1.3,0.8,2.3,0.7c1-0.1,1.9-0.1,2.7-0.1h30c2.2,0,4.3,0,6.4,0.1c2.1,0.1,4-0.2,5.6-0.7
	c-0.8-0.5-1.7-0.8-2.7-0.9C130.4,231,129.5,230.9,128.7,230.9z M88.2,130.9c4,0.1,7.6,0.2,10.9,0.2c3.3,0.1,6.6,0.1,9.9,0.2
	c3.3,0.1,6.9,0.2,10.6,0.3c3.7,0.1,8.1,0.2,13,0.3c-0.3-0.5-0.5-0.9-0.5-1.1c-0.1-0.2-0.1-0.6-0.1-1.1c-4.3-0.1-8.3-0.2-12-0.4
	c-3.7-0.2-7.3-0.2-10.8-0.2c-3.5,0-7,0.1-10.5,0.2c-3.5,0.2-7.2,0.4-11,0.9v0.6H88.2z M129.8,235.3c-6-0.8-12.1-1.2-18.3-1
	c-6.1,0.2-11.7,0.5-16.7,1c-0.6,0-1.4-0.1-2.2-0.2c-0.8-0.1-1.6-0.1-2.3-0.1c-0.7,0.1-1.3,0.2-1.8,0.5c-0.5,0.3-0.7,0.8-0.7,1.5
	c0.2,0.5,0.6,0.7,1.3,0.5c0.7-0.2,1.1,0,1.3,0.5c2.9-0.1,6-0.2,9.2-0.2c3.2-0.1,6.5-0.1,9.7-0.1c3.2,0,6.3,0,9.3,0
	c3,0,5.6-0.1,7.9-0.3c1.5,0,2.9,0.1,4.4,0.2c1.5,0.1,2.8-0.1,3.9-0.6c-0.3-1.1-1-1.7-2.1-1.7S130.6,235.3,129.8,235.3z M93.7,246.9
	c-0.8,0-1.8-0.1-2.9-0.2c-1.1-0.2-1.7,0.3-2,1.3c8.4,0.2,16.5,0.5,24.1,0.8c7.6,0.3,15.8,0.6,24.5,0.8v-2.7
	C121.8,246.2,107.2,246.2,93.7,246.9z M89.3,76.7c0.8,0.5,2,1,3.5,1.4c1.5,0.4,2.5,0.9,3,1.4c6.4-0.3,12.8-0.3,19.3,0.2
	c6.5,0.4,13,0.4,19.6-0.2v-2.8c-7.2,0-14.8,0.1-22.7,0.2C104.1,77.1,96.5,77,89.3,76.7z M117.7,239.2c-1.9-0.3-4.2-0.3-7-0.1
	c-2.8,0.3-5.3,0.3-7.7,0.1c-2.5,0-5,0-7.4-0.1c-2.4-0.1-4.3,0.5-5.7,1.6c6.6,0,12.9,0.2,19.1,0.7c6.2,0.5,12.2,0.4,18-0.1
	c-1.7,0-3.2-0.3-4.7-0.9C121,239.8,119.4,239.4,117.7,239.2z M90.4,256.7c-0.1,0-0.2,0.1-0.2,0.3c0,0.1,0.1,0.2,0.2,0.2
	c8.5-0.2,16.8-0.1,24.9,0.5c8.1,0.5,15.8,0.4,23.2-0.5c-4.4-0.3-8.5-0.5-12.5-0.5c-4-0.1-7.9-0.1-11.7-0.1c-3.9,0-7.7,0-11.6,0.1
	C98.8,256.7,94.7,256.7,90.4,256.7z M96.5,147.3c5.2,0,10.3,0.2,15.2,0.6c4.9,0.4,9.8,0.4,14.8-0.2c-5.5-0.2-10.8-0.4-15.9-0.6
	C105.6,147,100.9,147,96.5,147.3z M117.7,264.8c-1.9,0.3-3.7,0.4-5.5,0.2c-1.8-0.2-3.7-0.4-5.9-0.6c1.7-0.5,3.6-0.6,5.7-0.3
	C114.2,264.3,116.1,264.6,117.7,264.8z M112.9,259.4c3.9,0.3,8.2,0.5,13.1,0.6c4.9,0.1,9.3-0.1,13.1-0.6c-4.4,0.3-8.7,0.3-13.1,0.1
	C121.6,259.2,117.3,259.1,112.9,259.4z M116.6,174.1c0.2-0.2,0.2-0.4-0.1-0.5c-0.3-0.1-0.5-0.2-0.9-0.2c-0.4,0-0.8,0.1-1.2,0.2
	c0.5,0,0.9,0.1,1.1,0.2C115.8,174,116.1,174.1,116.6,174.1z M126.5,173.6c-1.4,0.2-2.9,0.2-4.8,0c-1.8-0.2-3.3-0.1-4.5,0.5
	c1.2,0,2.6,0.1,4.1,0.2c1.5,0.1,3,0.2,4.5,0.2c1.6,0.1,3,0.1,4.5,0.1s2.7-0.2,3.8-0.5c-0.4-0.5-0.9-0.8-1.5-0.9
	c-0.6-0.1-1.2-0.1-1.9-0.1c-0.7,0.1-1.4,0.2-2.1,0.3C127.9,173.5,127.2,173.6,126.5,173.6z M117.7,205.8c0.3,0.3,0.7,0.4,1.2,0.2
	c0.5-0.2,1.2-0.2,2-0.2c-0.4-0.1-0.8-0.2-1.2-0.2c-0.4,0-0.7,0-1,0C118.4,205.6,118.1,205.7,117.7,205.8z M124.3,205.8
	c-0.2,0-0.7-0.1-1.3-0.2c-0.7-0.1-1.1-0.1-1.3,0.2c0.5,0,1,0.1,1.6,0.2C123.7,206.2,124.1,206.1,124.3,205.8z M127.6,239.7
	c1.7,0.3,2.9,0.6,3.8,0.9c0.9,0.3,2.2,0.5,3.8,0.9c-0.5-1.1-1.6-1.9-3.1-2.3C130.6,238.6,129,238.8,127.6,239.7z M130.4,109.5
	c0.8-0.2,1.9-0.2,3.1,0c1.2,0.2,2,0.1,2.3-0.5v-0.6c-0.4,0-1-0.1-1.6-0.2c-0.7-0.2-1.3-0.2-2-0.2c-0.6,0-1.1,0.1-1.6,0.3
	C130.3,108.5,130.2,108.9,130.4,109.5z M133.1,128.1c0.5,0,1,0.1,1.6,0.2c0.5,0.2,0.9,0.1,1.2-0.2v-2.7h-3.3c0,0.8-0.1,1.4-0.2,1.6
	C132.3,127.2,132.5,127.6,133.1,128.1z M132.6,131.4c0.5,0,1.1,0.1,1.8,0.2c0.7,0.1,1.2-0.1,1.5-0.6c-0.3,0-0.5-0.2-0.6-0.5
	c-0.1-0.4-0.3-0.5-0.5-0.5c-0.8,0-1.4,0.1-1.7,0.2C132.7,130.1,132.6,130.6,132.6,131.4z M132.6,134.2c0.2,0.2,0.7,0.3,1.6,0.3
	c0.8,0,1.4-0.1,1.7-0.3c-0.3,0-0.4-0.1-0.2-0.4c0.2-0.3,0.2-0.5,0.2-0.7c-0.5,0-1.2,0-2-0.1C133,133,132.6,133.4,132.6,134.2z
	 M135.2,44.6c0.3-0.5,0.5-1.5,0.5-3c0-1.5-0.2-2.5-0.5-3c0,0.7-0.1,1.4-0.3,2c-0.2,0.6-0.4,1.2-0.5,1.7c-0.2,0.5-0.2,1-0.1,1.3
	C134.4,43.9,134.7,44.2,135.2,44.6z M135.2,171.4c0-0.5,0.1-0.9,0.3-1.2c0.2-0.3,0.3-0.8,0.3-1.6h-1.1c0,0.5,0,1,0.1,1.6
	C134.9,170.7,135,171.1,135.2,171.4z M136.3,194.8v-2.2c-0.2-0.2-0.4,0.1-0.5,0.9C135.6,194.4,135.8,194.8,136.3,194.8z M145.1,45
	h0.6c-1.5,0.3-3,0.4-4.6,0.2c-1.6-0.2-3-0.1-4.1,0.5c6.9-0.3,13.8-0.4,20.7-0.2c6.9,0.2,13.7-0.1,20.2-0.9c-2.5,0-5.2,0-8.1,0.1
	c-2.9,0.1-5.9,0.1-8.8,0.2c-3,0.1-5.8,0.1-8.6,0.2C149.6,45,147.2,45,145.1,45z M203,51.6c-11.5-0.7-22.6-0.9-33.4-0.5
	c-10.8,0.4-21.7,0.5-32.6,0.5c0.1,0.8,0.4,1.4,0.9,1.7c0.5,0.3,1,0.5,1.6,0.6c0.6,0.1,1.2,0.1,1.9,0c0.6-0.1,1.1-0.2,1.6-0.2
	c2.7,0,5.3-0.1,7.7-0.2c2.4-0.2,4.6-0.2,6.5-0.2c4.7,0.1,9.1,0.2,13.2,0.2c4.1,0.1,8.1,0.1,12.1,0.1c4,0,7.9,0,12-0.1
	c4-0.1,8.2-0.1,12.6-0.2c-0.3-0.8-0.9-1.3-1.8-1.5S203.6,51.6,203,51.6z M139.6,56c4.7,0,9.3,0,14-0.1c4.6-0.1,9.3-0.2,14-0.4
	c-0.1,0-0.2-0.1-0.2-0.2c-0.1,0-0.2,0-0.2-0.1c0-0.1-0.1,0-0.3,0.2c-2.7-0.3-5.6-0.5-8.7-0.5c-3.1,0-6.2,0.2-9.2,0.5
	c-1.7,0-3.3-0.1-4.8-0.2c-1.6-0.2-3.1-0.1-4.5,0.2c-0.2,0-0.5,0.1-0.9,0.2c-0.4,0.1-0.6,0.4-0.6,0.9c0.2,0,0.5-0.1,0.8-0.3
	C139.1,56.1,139.4,56,139.6,56z M139.6,249.5c-0.2-0.8-0.3-1.5-0.2-2c0.1-0.5,0-0.9-0.2-1.2c0,0.3-0.1,0.7-0.2,1
	c-0.2,0.4-0.3,0.7-0.4,1c-0.1,0.3-0.1,0.6,0.1,0.9C138.8,249.4,139.1,249.5,139.6,249.5z M139.6,252.3c0-0.3,0.1-0.7,0.2-1.1
	c0.1-0.4-0.1-0.6-0.6-0.6C139.1,251.7,139.3,252.3,139.6,252.3z M139.6,66.9c0.3-0.5,0.6-1,1-1.3c0.4-0.4,0.4-0.8,0.1-1.3h-1.1
	c0,0.2-0.1,0.7-0.2,1.3C139.4,66.2,139.4,66.7,139.6,66.9z M139.6,62.1c0.3,0,0.4,0.3,0.2,1c-0.2,0.7-0.1,0.9,0.5,0.5
	c0.2,0,0.3-0.2,0.4-0.7c0.1-0.5,0.1-1,0.1-1.5C140,61.4,139.6,61.6,139.6,62.1z M140.2,78.9c0-1.1,0-2.2,0.1-3.3
	c0.1-1-0.2-2.1-0.7-3.3c0.3,1.1,0.4,2.3,0.3,3.5C139.8,77.1,139.9,78.1,140.2,78.9z M140.2,123.8c0-0.5,0-1-0.1-1.6
	c-0.1-0.5-0.2-0.9-0.5-1.1c0,0.5,0.1,1,0.3,1.6C140.1,123.2,140.2,123.5,140.2,123.8z M139.6,125.5c0,1.1,0.2,2.2,0.5,3.3
	c0.4,1,0.5,2.1,0.5,3.3c0,0.5-0.1,1.2-0.2,2.1c-0.1,0.9-0.1,1.7-0.1,2.6c0.1,0.8,0.2,1.6,0.5,2.3c0.3,0.7,0.8,1.1,1.5,1.2
	c0-2.2-0.2-4.7-0.7-7.7c-0.5-2.9-1-5.5-1.5-7.7C140.2,125.6,140,125.8,139.6,125.5z M140.2,155c1.1,0.2,2,0.1,2.7-0.3
	c0.6-0.4,1.2-0.9,1.7-1.4c0.2,0.3,0.4,0.7,0.5,1.1c0.1,0.4,0.3,0.6,0.6,0.6c3.3-0.5,7-0.8,11-0.7c4,0.1,7.8,0.1,11.3,0.1
	c-0.5,0-1-0.2-1.6-0.6c-0.5-0.4-0.9-0.7-1.1-0.9c-1.8-0.1-3.8-0.2-6-0.3c-2.2-0.1-4.5-0.2-6.8-0.2c-2.3-0.1-4.5-0.1-6.6-0.1
	c-2.1,0-4,0-5.7,0c-0.3,0.3-0.3,0.7-0.1,1.2C140.4,154,140.4,154.5,140.2,155z M140.7,70.8c0-0.5,0-1-0.1-1.6
	c-0.1-0.5-0.2-0.9-0.4-1.2c0,0.5,0,1,0.1,1.4C140.4,69.8,140.5,70.3,140.7,70.8z M141.3,178.4c-0.3,2.5-0.6,5.6-0.8,9.3
	c-0.2,3.7-0.3,7.4-0.3,11c0,0.2,0.2,0.3,0.5,0.3c0.4,0,0.5,0.3,0.5,0.8c0,0.4-0.1,0.8-0.2,1.2c-0.2,0.4-0.3,0.8-0.4,1.2
	c-0.1,0.4-0.1,0.8,0.1,1.2c0.2,0.4,0.5,0.6,1,0.7c0.3-3.9,0.6-7.5,0.8-11c0.2-3.5,0.4-7,0.5-10.5c0.1-3.5,0.1-7.1,0.1-10.7
	c-0.1-3.6-0.1-7.5-0.2-11.6c-1.1,3.3-1.6,6.9-1.4,10.7c0.2,3.8,0.3,7.5,0.3,11.2c-0.5-0.5-0.7-1.2-0.6-2
	C141.3,179.6,141.3,179,141.3,178.4z M140.7,206.4c0,1.4,0,2.5,0.1,3.4c0.1,0.9,0.1,1.8,0.1,2.7c0,0.8,0,1.7-0.1,2.5
	c-0.1,0.8-0.2,1.8-0.5,2.8c0.5,0,0.8,0.3,0.8,0.9c0,0.6,0.3,0.9,0.8,0.9c0-2.5,0.1-4.7,0.2-6.5c0.2-1.8,0.1-4.2-0.2-7.3
	C141.8,206.2,141.4,206.4,140.7,206.4z M140.2,222.8c0.5,0.4,0.8,1,0.9,1.7c0.1,0.7,0.1,1.5,0.1,2.3c-0.1,0.8-0.1,1.6-0.1,2.3
	c0,0.7,0.2,1.3,0.6,1.7c0-2.2,0.1-4,0.2-5.5c0.1-1.5-0.1-2.9-0.6-4.4c-0.3,0-0.4,0.3-0.4,0.9C141,222.5,140.8,222.8,140.2,222.8z
	 M140.7,249.5h2.2c0-1.1-0.2-2-0.7-2.6c-0.5-0.6-1.1-0.6-2-0.1c0.2,0.2,0.3,0.7,0.2,1.3C140.4,248.9,140.5,249.3,140.7,249.5z
	 M140.7,252.8c0.5-0.2,1-0.3,1.3-0.2c0.4,0.1,0.6,0,0.9-0.2v-1.1c-0.5-0.5-1.1-0.6-1.9-0.2C140.3,251.4,140.2,252,140.7,252.8z
	 M140.7,118.3c0.3,0.3,0.5,0.8,0.5,1.3c0.1,0.6,0.1,1.2,0.1,1.9c0,0.7,0.1,1.4,0.2,2.1c0.2,0.7,0.4,1.4,0.9,1.9
	c0.2-7.7,0.3-15.1,0.4-22.2c0.1-7.1,0.1-14.5,0.1-22.2v-1.6c-0.2,1.4-0.3,2.6-0.2,3.7c0.1,1.1,0,2.4-0.2,3.9
	c-0.3-1.2-0.4-2.4-0.4-3.5c0.1-1.1,0.1-2.2,0.2-3.3c0.1-1.1,0.1-2.1,0-3.1c-0.1-1-0.4-2.1-0.9-3.2c-0.3,6.9-0.5,14.1-0.5,21.7
	C140.7,103.4,140.7,110.9,140.7,118.3z M141.8,163.1c0-0.5-0.1-1-0.2-1.5c-0.1-0.5-0.4-0.7-0.9-0.7c0,0.3,0.1,0.8,0.2,1.3
	C141,162.8,141.3,163.1,141.8,163.1z M140.7,253.9v1.1c0.5,0,1.1,0,1.8,0.1c0.7,0.1,1-0.3,1-1.2c-0.5,0-0.9,0.1-1.2,0.2
	C142.1,254.3,141.5,254.2,140.7,253.9z M140.7,256.7c0,0.4,0.2,0.7,0.5,0.9c0.4,0.2,0.7,0.2,1.1,0.2c0.4-0.1,0.7-0.2,1.1-0.3
	c0.4-0.2,0.5-0.4,0.5-0.7c-0.8-0.3-1.5-0.4-1.9-0.2C141.7,256.6,141.2,256.7,140.7,256.7z M144,57.7c-0.2,0-0.7-0.1-1.3-0.2
	c-0.7-0.1-1.1,0.1-1.3,0.6c0.5-0.2,1.1-0.3,1.7-0.2C143.7,58,144,57.9,144,57.7z M144,260v-0.6h-2.7c0,0.5,0.3,0.7,0.9,0.5
	C142.9,259.6,143.5,259.7,144,260z M141.8,235.3h0.6v-1.6c-0.5,0-0.7,0.2-0.5,0.6C142.2,234.8,142.1,235.1,141.8,235.3z M142.9,72.4
	c-0.2-0.2-0.3-0.6-0.2-1.3c0.1-0.7,0-1.1-0.2-1.3c0,0.5-0.1,1-0.2,1.6C142.2,71.8,142.4,72.2,142.9,72.4z M153.8,250.1
	c-1.7-0.3-3.3-0.9-4.8-1.7c-1.6-0.8-3-1-4.4-0.5c-0.3,0-0.5-0.2-0.6-0.7c-0.1-0.5-0.3-0.4-0.5,0.1c0.2,0,0.2,0.3-0.1,1
	c-0.3,0.7-0.2,1.3,0.1,1.8c1.7-0.3,3.5-0.3,5.5-0.1C151.1,250.3,152.7,250.3,153.8,250.1z M169.1,139.1c-0.5,0-1.2-0.1-2.2-0.2
	s-1.8-0.2-2.7-0.2c-1.6,0.4-3.2,0.7-5,0.7c-1.8,0.1-3.6,0.1-5.5,0.2c-1.9,0.1-3.7,0.3-5.5,0.6c-1.8,0.3-3.4,0.9-4.8,1.7
	c0.8,0.8,1.9,1.1,3.1,0.8c1.2-0.3,2.6-0.6,3.9-0.8c3.3,0,6.8,0,10.4,0c3.6,0,7.1-0.6,10.4-1.7c-0.5,0.5-0.9,0.5-1.1,0.1
	C170,139.8,169.7,139.4,169.1,139.1z M143.5,252.3c3.3,0.2,7.1,0.4,11.4,0.6c4.3,0.2,7.9,0.2,10.9-0.2c-1.9-0.4-3.6-0.7-5.3-0.9
	c-1.7-0.2-3.4-0.3-5.1-0.4c-1.7-0.1-3.5-0.2-5.4-0.3c-1.9-0.1-4.1-0.3-6.6-0.6c0.2,0.5,0.3,0.9,0.3,1S143.7,252,143.5,252.3z
	 M144,254.5v0.5c3.6,0,7.2,0,10.5,0.1c3.4,0.1,6.4,0.2,9.1,0.5c0.8,0,1.8,0,2.9,0.1c1.1,0.1,1.8-0.3,2.1-1.2
	c-3.9,0.2-7.9,0.2-12.1-0.1C152.3,254.2,148.1,254.2,144,254.5z M151.6,256.7c-1.1,0-2.3-0.1-3.5-0.4c-1.2-0.3-2.4,0-3.5,0.9
	c3,0.5,6,0.8,8.8,0.9c2.9,0.1,5.4,0.2,7.6,0.2c1.4,0,2.8-0.1,4.2-0.2c1.5-0.1,2.6-0.4,3.4-0.9c-2.7-0.2-5.4-0.3-8-0.4
	C158,256.7,155,256.7,151.6,256.7z M155.5,259.4h-10.5c1.1,0.3,2.9,0.5,5.2,0.5C152.7,259.8,154.4,259.7,155.5,259.4z M149,246.9
	c-0.3,0-0.6-0.1-0.9-0.2c-0.3-0.2-0.5-0.1-0.9,0.2c-0.2,0.2,0,0.3,0.7,0.3C148.6,247.2,149,247.1,149,246.9z M159.3,146.7
	c-4.6-0.5-8.6-0.5-12,0c2.5,0.5,5.4,0.8,8.7,0.9c3.3,0.1,6.4,0.2,9.5,0.2c-0.5-0.8-1.4-1.2-2.6-1.2
	C161.6,146.7,160.4,146.7,159.3,146.7z M163.2,145.6c0.3,0,0.8,0,1.3,0.1c0.6,0.1,1.2,0.1,2,0.1c0.7,0,1.4,0,2-0.1
	c0.6-0.1,1-0.2,1.3-0.5c-1.5,0-2.6,0-3.5,0.1C165.4,145.3,164.3,145.4,163.2,145.6z M171.3,145.6c1.1,0.3,2.4,0.4,3.8,0.4
	c1.4-0.1,2.7,0.2,3.8,0.7c-0.9,0.5-1.9,0.8-3,0.7c-1-0.1-2.1-0.2-3.2-0.3c-1.1-0.2-2.1-0.2-3.1-0.2c-1,0-1.9,0.3-2.7,0.9
	c2.5,0,4.9,0.1,7.3,0.2c2.4,0.2,4.7,0.1,6.9-0.2c-0.2-0.2-0.6-0.3-1.2-0.3c-0.6,0-0.7-0.3-0.4-0.8c0.1-0.1,0.3-0.2,0.7-0.2
	c0.4-0.1,0.7-0.1,1.1-0.2c0.4-0.1,0.7-0.3,1-0.5c0.3-0.3,0.5-0.6,0.5-1.2c-0.8,0-1.8-0.1-2.9-0.2c-1.1-0.1-2.2-0.2-3.3-0.2
	c-1.1,0-2.1,0.1-3.1,0.3C172.6,144.7,171.8,145.1,171.3,145.6z M167.6,61.4c1.1-0.2,2.5-0.3,4.2-0.3c1.7,0,3.3,0.1,5,0.3h-2.2
	c-1.1,0-2.3,0.1-3.5,0.4C169.9,62.1,168.7,61.9,167.6,61.4z M169.8,49.4c0.8,0.3,1.4,0.3,1.6,0.1c0.2-0.3,0.6-0.3,1.1-0.1
	c0-0.2-0.4-0.3-1.3-0.3S169.8,49.2,169.8,49.4z M177.9,155.5c0.3-0.5,0.5-0.9,0.6-1.2c0.1-0.3,0.3-0.6,0.5-0.9
	c-1.7,0.3-3.2,0.3-4.5,0.1c-1.4-0.3-2.8-0.3-4.2-0.1c1.5,0.3,2.7,0.8,3.7,1.3C174.9,155.2,176.2,155.5,177.9,155.5z M170.2,249
	c0.5,0,0.9,0.2,1.1,0.5c0.2,0.4,0.6,0.5,1.1,0.5c0-1.1,0.1-2.1,0.2-2.7c0.1-0.7-0.1-1.4-0.6-2.3C171.4,246.1,170.9,247.4,170.2,249z
	 M175.2,139.1c-0.4,0.4-0.8,0.6-1.1,0.6c-0.2,0.1-0.4,0.1-0.6,0c0.3,0.2,0.7,0.4,1.2,0.5C175.3,140.3,175.4,139.9,175.2,139.1z
	 M198.7,48.9c-0.2,0-0.3-0.2-0.3-0.5c0-0.3-0.3-0.4-0.8-0.2c-3.3,0-6.9,0.1-10.7,0.4c-3.8,0.3-7.5,0.5-11.2,0.7
	c5,0,9.8,0.1,14.4,0.2c4.6,0.1,9.3,0.4,14,0.9c0.3-0.2,0.3-0.5,0.1-1c-0.3-0.5-0.7-0.9-1.2-1.2c-0.2,0.3-0.2,0.6,0.2,0.9
	c0.3,0.3,0.5,0.5,0.5,0.9c-0.5-0.5-1.1-0.8-1.8-0.9C201.2,49,200.1,48.9,198.7,48.9z M179,159.8c-0.5,0-1-0.2-1.3-0.5
	c-0.4-0.4-0.8-0.5-1.3-0.5c0,0.5,0.4,0.9,1.2,1.2C178.3,160.2,178.8,160.2,179,159.8z M176.8,259.4c0-0.2,0.2-0.4,0.5-0.5
	c0.4-0.2,0.5-0.5,0.5-1c-0.2,0-0.5-0.1-0.8-0.3c-0.3-0.2-0.6-0.3-0.8-0.3C176.3,258.3,176.5,259,176.8,259.4z M176.8,138
	c2.7,0,4.7-0.6,6-1.9c1.3-1.2,2.8-2.4,4.5-3.6c0.2-0.2,0.2-0.5-0.1-0.8c-0.3-0.3-0.2-0.6,0.1-0.8c1.1,0,1.9-0.2,2.3-0.6
	c0.4-0.4,0.9-0.8,1.4-1.1c0-0.5-0.2-0.8-0.5-0.8c-0.4,0-0.5-0.3-0.5-0.8c0.3-0.3,0.6-0.5,0.9-0.7c0.3-0.2,0.7-0.1,1.2,0.1
	c0-1.1,0.4-2.1,1.3-3c0.9-0.8,1.2-1.8,0.9-3c-2.7,3-5.6,5.8-8.7,8.4C182.4,132.1,179.5,135,176.8,138z M179.6,61.4
	c1-0.4,2.3-0.6,3.7-0.7c1.5-0.1,3,0,4.5,0.1c1.6,0.1,3.1,0.2,4.5,0.2c1.5,0.1,2.8,0,4.1-0.1c0,0.7,0.2,1.1,0.6,1.1
	c-2.2,0-4.9-0.2-8.1-0.5C185.7,61.3,182.6,61.2,179.6,61.4z M179.6,155.5c0.5-0.2,1-0.3,1.3-0.2c0.4,0.1,0.8,0.2,1.3,0.2
	c0.3-0.2,0.5-0.6,0.5-1.2c0-0.6-0.2-0.9-0.5-0.9c-0.2,0.3-0.3,0.7-0.2,1.1c0.1,0.4,0,0.6-0.2,0.6c-0.3-0.3-0.5-0.7-0.7-1.1
	c-0.2-0.4-0.5-0.6-1-0.6c0,0.3-0.1,0.6-0.2,0.9C179.7,154.5,179.6,154.9,179.6,155.5z M181.2,143c1.1,0,1.9,0.2,2.2,0.5
	c0.7-0.5,1.1-1.2,1.1-2.2c-1.1,0-1.9,0.2-2.3,0.5C181.8,142,181.5,142.5,181.2,143z M182.3,150c0.5-0.2,1.1-0.1,1.9,0.2
	c0.7,0.4,1.2,0.3,1.4-0.2c-0.5,0-1.2-0.1-2.2-0.4C182.4,149.4,182,149.5,182.3,150z M184.4,144.5c-0.2,0.3-0.4,0.5-0.7,0.7
	c-0.3,0.2-0.4,0.5-0.4,1c0.5,0.2,1.1,0.3,1.7,0.3c0.6,0,0.8,0.4,0.5,1.2c-0.5-0.2-1-0.3-1.6-0.2c-0.5,0.1-0.9,0-1.1-0.2
	c-0.2,0.4-0.2,0.7,0,0.9c0.1,0.1,0.3,0.2,0.5,0.2c2.2,0.5,4.9,0.8,8.2,0.9c3.3,0.1,6-0.1,8.2-0.4c-0.8-0.5-1.9-0.9-3.1-1
	c-1.2-0.2-2.6-0.2-3.9-0.2c-1.4,0-2.6-0.1-3.8-0.2c-1.2-0.1-2.1-0.4-2.7-0.8c1.5-0.1,2.8-0.1,3.9-0.1c1.1,0.1,2.2,0.1,3.3,0.2
	c1,0.1,2.1,0.1,3,0.1c1-0.1,2.1-0.3,3.4-0.7c-2.4-0.5-5-0.8-7.8-0.9C189.1,145.3,186.6,145.1,184.4,144.5z M193.8,152.8h-0.3
	c-0.1,0-0.1,0.1-0.1,0.2c0.1,0.1,0.2,0.2,0.4,0.3c0.8-0.5,1.7-0.7,2.7-0.6c0.9,0.1,2.2,0.2,3.9,0.2c-0.8-0.5-2-0.7-3.4-0.5
	c-1.5,0.2-2.9,0-4.2-0.5c-0.7,0.3-1.6,0.4-2.5,0.2s-1.9-0.3-2.9-0.5s-1.9-0.3-2.7-0.3c-0.8-0.1-1.4,0.1-1.8,0.5
	c1.9,0.5,3.6,0.8,5.2,0.7C189.7,152.4,191.6,152.5,193.8,152.8z M185.1,159.8c0.2-0.5,0-0.9-0.5-1.1c-0.6-0.2-1.1-0.2-1.6,0
	c0.5,0.3,0.9,0.7,1.1,1C184.2,160.1,184.5,160.2,185.1,159.8z M183.4,153.3c0,0.3,0.1,0.6,0.3,0.9c0.2,0.3,0.3,0.7,0.3,1.2
	c2-0.1,3.6-0.2,5-0.2c1.4-0.1,2.6-0.1,3.7-0.2c1.1-0.1,2.3-0.1,3.4-0.1c1.1,0,2.5,0,4.2,0c-2.2-0.8-4.8-1.2-7.9-1.2
	C189.4,153.7,186.4,153.6,183.4,153.3z M191.6,142.3c-0.8,0-1.9-0.2-3-0.5c-1.2-0.3-2.2-0.3-3,0c0,0.2-0.2,0.4-0.5,0.5
	c-0.4,0.2-0.5,0.5-0.5,1c2.7,0.3,5.3,0.5,7.7,0.7c2.4,0.2,4.9,0.1,7.7-0.1c-0.5-1-1.6-1.5-3.2-1.4
	C194.9,142.8,193.3,142.7,191.6,142.3z M185.1,156.6c2.7,0.5,5.3,0.8,7.8,0.9c2.5,0.1,5,0.2,7.5,0.2c0.2-0.2,0.3-0.4,0.2-0.5
	c-0.1-0.2-0.2-0.5-0.2-1c-1.6,0-2.9,0-4.1-0.1c-1.1-0.1-2.3-0.1-3.4-0.1c-1.1,0-2.3,0-3.5,0.1C188.2,156.1,186.7,156.2,185.1,156.6z
	 M185.5,158.3c0.5,0.2,0.8,0.5,0.8,1s0.1,0.9,0.3,1.2c0.5,0,1.1-0.1,1.6-0.2c0.6-0.2,1.1-0.1,1.6,0.2c-0.2-0.5-0.3-1-0.2-1.3
	c0.1-0.4,0-0.6-0.2-0.9c0,0.2-0.1,0.2-0.3,0.1c-0.2-0.2-0.3-0.4-0.3-0.7h0.6c-0.5,0.3-1.1,0.4-1.7,0.3
	C187.1,157.9,186.4,158,185.5,158.3z M186.6,140.2c1.7,0.3,3.2,0.6,4.7,0.8c1.5,0.2,3,0.3,4.7,0.3c0.1,0,0.3,0.1,0.7,0.2
	c0.4,0.1,0.8,0.2,1.2,0.2c0.4,0.1,0.8,0,1.2-0.1c0.4-0.1,0.6-0.4,0.7-0.8c-1.7,0-3.8-0.2-6.3-0.5C190.9,140,188.6,140,186.6,140.2z
	 M198.7,136.9c-1.1,0-2.3-0.2-3.5-0.5s-2.3-0.5-3.4-0.5c-1.1-0.1-2,0.1-2.8,0.4c-0.8,0.3-1.3,1.1-1.6,2.3c2.7,0.2,4.9,0.4,6.5,0.6
	c1.6,0.2,3.6,0.2,6-0.2c0.3,0,0.4-0.1,0.2-0.2c-0.2-0.2-0.1-0.2,0.5-0.2c0.3,0.5,0.9,0.9,1.6,1c0.8,0.2,1.7,0.2,2.7,0.2
	c1-0.1,2-0.1,3.1-0.2c1.1-0.1,2.1,0,2.9,0.1V138c-1.4-0.2-2.9-0.4-4.5-0.5c-1.7-0.1-3.6-0.3-5.8-0.6c-0.3,0-0.4,0.2-0.3,0.5
	c0.1,0.4,0,0.5-0.3,0.5C199.8,137.2,199.4,136.9,198.7,136.9z M191,163.1c0-0.2-0.1-0.4-0.2-0.5c-0.2-0.1-0.2-0.3-0.2-0.6
	c-0.3-0.2-0.7-0.3-1.2-0.4c-0.5-0.1-1-0.1-1.6-0.1c0,0.8,0.3,1.3,1,1.4C189.4,163.1,190.2,163.1,191,163.1z M192.1,167
	c0-0.5-0.1-1-0.2-1.3c-0.2-0.4-0.2-0.6-0.2-0.9c-0.3,0-0.7-0.1-1.1-0.2c-0.4-0.2-0.6-0.1-0.6,0.2c0.5,0.2,0.9,0.5,1.1,1
	C191.2,166.3,191.6,166.7,192.1,167z M191,134.7c1.5,0.3,2.8,0.5,4.1,0.6c1.3,0.1,2.7,0.3,4.1,0.5c0-0.8,0.1-1.5,0.2-1.9
	c0.2-0.4,0.2-0.9,0.2-1.4c-1.1,0-2.2-0.1-3.1-0.2c-0.9-0.1-1.8-0.2-2.5-0.2c-0.7,0-1.4,0.2-1.9,0.5
	C191.7,133.1,191.3,133.8,191,134.7z M192.7,158.7v1.1c0.8,0.3,2.2,0.5,4.1,0.6c1.9,0.1,3.2-0.1,4.1-0.6v-1.1
	c-1.7,0-3.1-0.1-4.3-0.2C195.4,158.5,194.1,158.5,192.7,158.7z M193.2,161.6c-0.2,0.2-0.2,0.5,0.2,0.8c0.3,0.3,0.5,0.6,0.5,0.8
	c1.4,0,2.7,0.1,3.9,0.2c1.2,0.1,2.3-0.1,3.1-0.6V162c-1.1,0-2.4-0.1-3.8-0.2C195.6,161.6,194.3,161.6,193.2,161.6z M201.9,54.9
	c-1.1,0.3-2.4,0.3-3.9,0.1c-1.5-0.3-2.9-0.3-4.2-0.1c1.4,0.3,2.8,0.5,4.2,0.5C199.5,55.3,200.8,55.2,201.9,54.9z M194.3,130.9h5
	v-2.2c-1.1-0.5-2.1-0.5-3,0.1C195.5,129.4,194.8,130.1,194.3,130.9z M194.3,164.8c0,0.5,0.1,0.9,0.4,1.2c0.3,0.3,0.5,0.6,0.7,0.9
	c1.4,0,2.6,0,3.7,0c1.1,0,2.3,0,3.5-0.1c1.2-0.1,2.4-0.1,3.7-0.2c1.2-0.1,2.7-0.2,4.4-0.4v-1.6h-8.7c-0.2,0-0.2,0.1,0,0.3
	c0.2,0.2,0.1,0.5-0.5,0.8c-0.5-1-1.5-1.4-3-1.2C197,165,195.6,165.1,194.3,164.8z M197.1,183.4c-0.3-0.8-0.5-1.5-0.7-2.1
	c-0.2-0.6-0.5-1-1-1.2c0.3,0.5,0.5,1.1,0.7,1.6C196.2,182.4,196.6,182.9,197.1,183.4z M196,168.1c0,0.5,0.1,0.9,0.2,1.2
	c0.2,0.3,0.2,0.6,0.2,0.9h5v-2.2c-0.8,0.2-1.7,0.3-2.5,0.2C198.1,168.2,197.1,168.1,196,168.1z M197.6,127h1.1c0-0.2,0-0.5-0.1-0.9
	c-0.1-0.4-0.2-0.6-0.4-0.6c0,0.5-0.1,0.9-0.3,1C197.7,126.6,197.6,126.8,197.6,127z M197.6,173c0.3,0.3,0.9,0.5,1.8,0.5
	c0.9,0.1,1.7,0.1,2.6,0.1v-1.7h-4.4V173z M199.8,178c0.3-0.3,0.6-0.4,0.9-0.2c0.3,0.2,0.5,0.2,0.9,0.2c0.2-0.3,0.3-0.7,0.2-1.2
	c-0.1-0.5-0.2-1-0.2-1.6c-0.4-0.3-1.5-0.5-3.3-0.5c0.2,0.8,0.5,1.4,0.8,1.6C199.3,176.6,199.5,177.1,199.8,178z M198.7,63.1
	c0.5,0,1.1,0.2,1.9,0.7c0.7,0.5,1.2,1,1.4,1.5c-0.2,0-0.7-0.3-1.4-0.9C199.8,63.8,199.2,63.4,198.7,63.1z M200.4,130.9
	c1.4,0.2,2.9,0.4,4.8,0.7c1.8,0.3,3.7,0.4,5.5,0.4v-2.8c-1.9,0-3.6-0.1-5.3-0.3c-1.7-0.2-3.3-0.5-5-0.8
	C199.6,129.3,199.6,130.2,200.4,130.9z M200.4,135.8c1.9,0,3.6,0.1,5.3,0.2c1.7,0.2,3.3,0.1,5-0.2v-2.7c-1.9,0.2-3.6,0.2-5.3,0.1
	c-1.7-0.2-3.3-0.4-5-0.7c-0.3,0.3-0.5,0.8-0.5,1.5C199.9,134.7,200.1,135.3,200.4,135.8z M200.8,191.6c0-0.7-0.2-1.2-0.5-1.6
	c-0.3,0.2-0.4,0.5-0.2,0.9C200.4,191.3,200.6,191.6,200.8,191.6z M208,121.6c-1.1-0.2-2.3-0.3-3.6-0.2c-1.2,0.1-2.4,0-3.6-0.2v0.3
	c0,0.1-0.2,0.2-0.5,0.2v1.7c1.7,0,3.5,0.2,5.4,0.6c1.9,0.4,3.6,0.2,4.9-0.6c0.3-0.8,0.1-1.3-0.7-1.5
	C209.2,121.6,208.6,121.6,208,121.6z M200.4,124.8v2.2c1.7,0.3,3.3,0.5,4.8,0.5c1.5,0.1,3.4,0.1,5.5,0.1v-2.2
	c-1.9,0-3.6-0.2-5.3-0.5C203.7,124.7,202,124.6,200.4,124.8z M200.4,141.9c2.2,0,3.9,0,5,0.1c1.1,0.1,2.5-0.2,4.2-0.7
	c-1.4-0.2-2.9-0.3-4.8-0.2c-1.8,0.1-3.3,0-4.5-0.2V141.9z M200.4,144.5c1.4,0.3,3.1,0.5,5.2,0.6c2.1,0.1,3.8-0.1,5.2-0.6v-1.1
	c-1.9-0.2-3.6-0.3-5.3-0.2c-1.7,0.1-3.3,0-5-0.2V144.5z M200.4,146.7c0.2-0.2,0.6-0.3,1.2-0.2c0.6,0.1,0.9,0,0.9-0.2
	c-0.3,0-0.8-0.1-1.3-0.2C200.7,146,200.4,146.2,200.4,146.7z M200.4,148.9c1.9,0.3,3.6,0.4,5.3,0.2c1.7-0.2,3.3-0.4,5-0.6
	c-1.4-0.3-3.1-0.5-5.3-0.6C203.2,147.7,201.5,148.1,200.4,148.9z M201.9,180.6v-1.1h-1.6c0,0.3,0.1,0.7,0.4,1
	C201,180.9,201.4,180.9,201.9,180.6z M201.5,159.4c-0.4,0-0.6,0.1-0.6,0.3c-0.1,0.1-0.1,0.2,0,0.2c1.7,0.3,3.4,0.5,5.2,0.6
	c1.8,0.1,3.3-0.1,4.7-0.6c-1.4-0.5-2.9-0.7-4.8-0.6C204.1,159.3,202.6,159.4,201.5,159.4z M200.8,152.8c0.8,0,1.7,0,2.7,0.1
	c0.9,0.1,1.5-0.2,1.7-0.7c-0.8,0.3-1.7,0.4-2.6,0.2C201.8,152.1,201.2,152.3,200.8,152.8z M208.5,154.4h2.2
	c-0.8-0.1-1.8-0.2-2.8-0.3c-1-0.1-2.1-0.2-3-0.2s-1.9,0.1-2.7,0.2c-0.8,0.2-1.2,0.4-1.3,0.9c1.7,0,2.9,0,3.8-0.1
	C205.6,154.9,206.8,154.7,208.5,154.4z M200.8,157.7c0.5,0,1.3,0.1,2.3,0.2c1,0.2,2.1,0.2,3.2,0.2c1.1,0,2.1-0.1,2.9-0.4
	c0.8-0.3,1.3-0.8,1.4-1.6c-1.9,0-3.5,0.1-4.8,0.2c-1.4,0.1-3,0.1-5-0.2V157.7z M201.5,114.5c0,0.2,0.1,0.5,0.2,0.8
	c0.2,0.3,0.2,0.6,0.2,0.8c0.8,0.3,1.9,0.4,3.3,0.3c1.4-0.1,2.4,0,3.3,0.3c0.3-0.3,0.5-0.6,0.5-0.9c0.1-0.3,0.1-0.7,0.1-1.2
	c-1.5,0-2.8-0.1-3.9-0.2C204.1,114.1,202.8,114.2,201.5,114.5z M201.5,120c1.1,0,2.4,0.1,3.9,0.2c1.5,0.2,2.9,0.2,4.2,0.2v-2.2
	c-0.6,0-1.4-0.1-2.3-0.3c-0.9-0.2-1.9-0.3-2.7-0.3s-1.6,0.2-2.2,0.5C201.8,118.4,201.5,119.1,201.5,120z M201.5,151.1
	c0.8-0.2,1.5-0.2,2,0c0.5,0.2,0.9,0.1,1.2-0.5c-0.5,0-1.1-0.1-1.9-0.2C202.1,150.4,201.7,150.6,201.5,151.1z M201.5,162v1.1
	c1.1,0,2.8,0.1,4.8,0.2c2.1,0.1,3.5-0.1,4.4-0.6c-1.7-0.5-3.2-0.8-4.6-0.7C204.7,162,203.1,162,201.5,162z M201.9,168.1v2.7h8.7
	v-2.7H201.9z M201.9,173.6c0.7,0,1.5,0.1,2.4,0.2c0.9,0.2,1.8,0.3,2.7,0.3c0.9,0.1,1.7,0,2.5-0.2c0.8-0.2,1.4-0.5,1.8-1
	c-0.4-0.4-1-0.7-1.8-0.8c-0.8-0.1-1.6-0.2-2.4-0.2c-0.8,0-1.7,0-2.5,0.1c-0.8,0.1-1.5,0-2-0.2c-0.3,0.3-0.4,0.5-0.3,0.7
	C202.4,172.7,202.3,173.1,201.9,173.6z M202.6,178c1.1,0.2,2.4,0.3,3.9,0.2c1.5-0.1,2.9-0.2,4.2-0.2v-2.2c-1.7,0-3.1-0.1-4.4-0.3
	c-1.2-0.2-2.7-0.3-4.4-0.3c0,0.5,0.1,1,0.3,1.4C202.5,177,202.6,177.4,202.6,178z M202.6,179.5c0.1,0.7,0.5,1.2,1.1,1.4
	c0.6,0.2,1.4,0.3,2.2,0.3c0.8,0,1.7,0,2.6-0.1c0.9-0.1,1.6,0,2.3,0.1c-0.1-0.9-0.4-1.5-0.9-1.7c-0.5-0.2-1.1-0.3-1.9-0.2
	c-0.7,0.1-1.6,0.2-2.5,0.4C204.4,179.9,203.5,179.8,202.6,179.5z M203,112.8c1.5-0.2,2.6-0.3,3.5-0.2c0.9,0.1,1.9,0.2,3,0.2
	c0.3-0.2,0.3-0.5,0.1-0.8c-0.3-0.3-0.3-0.6-0.1-0.8c-0.5,0.1-1.2,0.1-2,0.1c-0.8-0.1-1.5-0.1-2.2-0.1c-0.7,0-1.2,0.1-1.7,0.3
	C203.3,111.8,203,112.2,203,112.8z M203,182.8c0.5,0,1.1,0.1,1.9,0.2c0.7,0.2,1.2,0.1,1.4-0.2c-0.1,0-0.3-0.1-0.7-0.2
	c-0.4-0.1-0.7-0.2-1.1-0.2c-0.4-0.1-0.7-0.1-1-0.1C203.2,182.3,203,182.5,203,182.8z M203.7,185H203v1.1c1.5,0,2.9,0.1,4.4,0.2
	c1.5,0.2,2.8,0.1,3.9-0.2c-0.3-0.6-0.7-1-1.2-1.2c-0.5-0.2-1-0.2-1.6-0.2c-0.6,0.1-1.4,0.2-2.2,0.3
	C205.5,185.2,204.6,185.2,203.7,185z M204.8,190c1.1,0,2.2,0.1,3.3,0.2c1,0.1,2.1,0.1,3.3-0.2v-1.7c-1.5,0-2.8-0.1-3.9-0.4
	c-1.1-0.3-2.4-0.1-3.7,0.4c0.2,0,0.4,0.2,0.7,0.6C204.6,189.3,204.8,189.7,204.8,190z M211.3,48.3c-1.1,0-2.2,0-3.3-0.1
	c-1-0.1-2.1,0.2-3.3,0.7c0.1,0.6,0.3,1.1,0.7,1.3c0.4,0.3,0.8,0.4,1.3,0.5c0.5,0.1,1.1,0.2,1.7,0.2s1.2,0.1,1.7,0.2
	c0.8,0,1.6-0.1,2.4-0.3c0.8-0.2,1.6-0.3,2.4-0.3c2,0,3.8,0.2,5.5,0.5c1.7,0.4,3.5,0.5,5.4,0.5h14.8c1.1,0,2.4-0.1,3.9-0.2
	c1.5-0.2,2.3-0.8,2.7-2c-5.5-0.5-11.4-0.8-17.7-0.9C223.5,48.4,217.4,48.3,211.3,48.3z M205.2,109.5c0.5,0,1.1,0.1,1.7,0.2
	c0.6,0.2,1.5,0.1,2.7-0.2c0-0.8-0.6-1.3-1.8-1.3c-1.2-0.1-2.2,0-3,0.2c0.2,0.3,0.3,0.5,0.2,0.6C204.9,109.2,205,109.3,205.2,109.5z
	 M205.2,151.1h5.5c-0.5-0.8-1.4-1.2-2.7-1C206.7,150.2,205.7,150.6,205.2,151.1z M206.3,54.9c0.3,0.3,0.6,0.7,1,1
	c0.4,0.4,1,0.4,1.8,0.1c0-0.2-0.1-0.5-0.3-0.8c-0.2-0.3-0.3-0.6-0.3-0.8C207.5,54.4,206.7,54.6,206.3,54.9z M214.6,52.7
	c2.2,0.3,4.3,0.6,6.5,0.9c2.1,0.3,4.1,0.2,6-0.3c-2.4-0.8-5.4-1.2-9.1-1.1c-3.7,0.1-7.2,0.3-10.5,0.5c1.1,0.5,2.3,0.7,3.6,0.4
	C212.3,52.8,213.4,52.7,214.6,52.7z M208,192.2c0.8-0.3,1.5-0.3,2,0.2c0.5,0.4,0.9,0.4,1.2-0.2c-0.3-0.3-0.9-0.5-1.9-0.5
	S208,191.9,208,192.2z M215.1,56c-1-0.4-1.2-0.9-0.5-1.6h-5c0,0.2,0.1,0.4,0.2,0.5c0.2,0.2,0.1,0.5-0.2,1H215.1z M210.7,120.5
	c0.3-0.2,0.4-0.6,0.2-1.2c-0.2-0.6-0.4-0.9-0.6-0.9c-0.1,0.4-0.2,0.8-0.2,1.1C210.1,120.1,210.3,120.5,210.7,120.5z M212.4,57.7
	c0.2,0.8,0.7,1.4,1.4,1.7c0.7,0.3,1.5,0.5,2.3,0.5c0-0.3-0.1-0.6-0.2-0.9c-0.2-0.3-0.2-0.7-0.2-1.2c-0.3,0-0.9-0.1-1.7-0.2
	C213.1,57.3,212.6,57.4,212.4,57.7z M215.1,74.1c-0.2-0.3-0.5-0.6-0.9-0.8c-0.4-0.2-1-0.3-1.8-0.3c0.5-0.5,1.1-0.6,1.7-0.2
	C214.8,73.1,215.1,73.6,215.1,74.1z M218.3,69.7c-0.5,0-0.9-0.2-1-0.6c-0.2-0.4-0.3-0.8-0.5-1.1h-1.7c0.5,0.3,1.1,0.8,1.6,1.5
	C217.3,70.2,217.8,70.2,218.3,69.7z M215.7,42.8c1.1-0.2,2-0.2,2.7-0.1s1.4-0.2,2.2-1c-0.8,0-1.7,0.1-2.7,0.2
	C216.9,42,216.2,42.3,215.7,42.8z M215.7,61.4c0.2,0.3,0.5,0.7,1,1c0.5,0.4,0.9,0.4,1.2,0.1c-0.4,0-0.6-0.4-0.6-1.1
	c-0.2,0-0.5-0.1-0.8-0.2C216.2,61.2,215.9,61.2,215.7,61.4z M216.2,56c2,0,3.8,0.1,5.5,0.3c1.7,0.2,3.5,0.3,5.4,0.3
	c-0.2-0.5-0.2-0.8,0.2-0.9c0.3-0.1,0.5-0.3,0.5-0.9c-1.7,0-3.4,0-5.2-0.1c-1.8-0.1-3.9-0.2-6.4-0.4V56z M218.3,60.3
	c5.5,0,10.7,0.1,15.5,0.2c4.8,0.1,9.9-0.1,15.1-0.6c0-0.7-0.2-1.3-0.5-1.7c-3.3-0.2-6.5-0.2-9.5,0.2c-3,0.3-6.6,0.5-10.8,0.5
	c-0.2,0-0.3,0.2-0.2,0.5c0.1,0.4,0,0.5-0.2,0.5c-0.3-0.3-0.5-0.6-0.5-0.9c-0.1-0.3-0.1-0.5-0.1-0.9c-1.4,0-2.8-0.1-4.5-0.2
	c-1.6-0.2-3.4-0.2-5.4-0.2C218,58.9,218.3,59.8,218.3,60.3z M219,63.1c0-0.1,0.2-0.3,0.5-0.5c0.2,0,0.4-0.1,0.6-0.2
	c0-0.2-0.2-0.4-0.6-0.7c-0.4-0.3-0.8-0.4-1.1-0.4C218.3,62.6,218.6,63.1,219,63.1z M245.7,64.2c-4.7-0.3-9.3-0.3-13.9,0.2
	c-4.6,0.4-8.7,0.4-12.3-0.2c0.3,1.4,1,2,2.1,1.8c1.1-0.2,2.1-0.2,2.9-0.2c3.9,0.3,8.1,0.5,12.7,0.5c4.6,0,8.5-0.2,11.9-0.5
	c-0.2-0.8-0.6-1.2-1.2-1.2C247.2,64.6,246.5,64.4,245.7,64.2z M220.5,62.5c5,0.5,10,0.8,14.9,0.8c4.9,0,9.5-0.4,13.5-1.2
	c-4.4-0.5-9-0.6-13.8-0.3c-4.8,0.3-9.9,0.2-15.1-0.3c0,0.3,0.1,0.5,0.2,0.6C220.5,62.2,220.5,62.3,220.5,62.5z M223.3,70.2
	c2,0,4.1,0.1,6.4,0.2c2.3,0.1,4.6,0.2,6.8,0.2c2.2,0.1,4.4,0,6.6-0.1c2.1-0.1,4.1-0.4,5.9-0.8c0.1-0.7,0-1.2-0.4-1.6
	c-0.4-0.3-0.9-0.5-1.5-0.6c-0.6-0.1-1.3-0.1-2.1-0.1c-0.8,0.1-1.4,0.1-2,0.1c-3.3,0.2-6.9,0.3-10.7,0.2c-3.8-0.1-7.4-0.2-10.7-0.2
	c0.3,0.5,0.5,1,0.7,1.6C222.5,69.6,222.8,70,223.3,70.2z M224.9,41.7c0.7,0.2,1.5,0.3,2.4,0.2c0.9-0.1,1.7-0.1,2.6-0.2
	c0.8-0.1,1.6-0.1,2.3-0.2c0.7-0.1,1.2,0,1.5,0.1c0.4-0.3,1-0.4,1.7-0.4c0.7,0.1,1.4,0.1,2.1,0.1c0.7,0,1.3,0,2-0.1
	c0.6-0.1,1.1-0.3,1.4-0.7c-2.5,0-5.2,0.1-8,0.2C230.1,40.9,227.4,41.2,224.9,41.7z M230.4,71.9c-0.8,0-1.7,0.1-2.7,0.2
	c-1,0.1-1.9,0.4-2.7,0.9c0.5,1.1,1.4,1.7,2.6,1.6c1.2-0.1,2.4-0.3,3.5-0.5c3,0,5.9,0.1,8.7,0.4c2.8,0.3,5.9,0.1,9.2-0.4
	c0-0.3,0.1-0.5,0.2-0.7c0.2-0.2,0.1-0.5-0.2-1c-2.7,0-5.7-0.1-8.8-0.2C237,72,233.7,71.9,230.4,71.9z M227.1,52.7
	c0.8,0.8,2,1.2,3.4,1.2c1.4-0.1,2.7-0.1,3.8-0.1h4.4c0.6,0,1.4,0.1,2.2,0.2c0.8,0.1,1.6,0.2,2.4,0.2c0.8,0,1.5-0.1,2.1-0.3
	c0.6-0.2,1.1-0.6,1.4-1.1C239.1,52.3,232.5,52.3,227.1,52.7z M227.7,57.1c4.1,0,7.7-0.1,10.9-0.3c3.2-0.2,6.5-0.5,9.8-0.8
	c-3.6-0.5-7.2-0.8-10.6-0.9c-3.4-0.1-6.8,0.1-10.2,0.4c0.2,0,0.3,0.2,0.2,0.6C227.8,56.5,227.7,56.8,227.7,57.1z M229.9,77.8
	c0.4,0.3,1.1,0.5,2,0.5c0.9,0.1,2,0.1,3.2,0.1c1.2,0,2.4-0.1,3.7-0.2c1.2-0.1,2.4-0.3,3.6-0.5c1.1,0,2.3,0,3.6,0.1
	c1.2,0.1,1.9-0.3,1.9-1.2c-3-0.5-6.2-0.7-9.7-0.6c-3.4,0.1-6.9,0.2-10.5,0.2c0,0.2,0.2,0.5,0.7,0.9
	C228.9,77.6,229.4,77.8,229.9,77.8z M230.4,79.5c0.3,1.1,1,1.8,2,2c1,0.2,1.8,0.2,2.3,0.2c2.2,0,4.5,0,6.8-0.1
	c2.3-0.1,4.5-0.2,6.3-0.5v-1.6H230.4z M243,83.3c-2-0.2-3.8-0.4-5.5-0.6c-1.7-0.2-3.2-0.2-4.3,0.2c0,1.4,0.5,2.1,1.6,2.1
	c1,0.1,2.1,0.1,3.3,0.1c2-0.3,3.8-0.4,5.5-0.2c1.7,0.2,3,0.1,3.8-0.5c0-0.5-0.2-0.9-0.5-1.1c-0.4-0.2-0.8-0.3-1.2-0.3
	c-0.5,0-0.9,0.1-1.4,0.2C243.7,83.2,243.3,83.3,243,83.3z M246.8,46.1c-2.4,0.3-4.6,0.4-6.6,0.4c-2-0.1-3.8,0.2-5.5,0.7
	c2.2,0,4.2,0.1,6.1,0.3c1.9,0.2,4.1,0.3,6.6,0.3c0-0.3,0-0.7-0.1-1.1C247.3,46.3,247.1,46.1,246.8,46.1z M235.4,86.6
	c0.3,0.5,0.8,0.9,1.3,1.2c0.6,0.3,1.2,0.4,1.9,0.5c0.7,0.1,1.4,0.2,2.2,0.2c0.8,0.1,1.5,0.1,2.3,0.2c0.8,0,1.6,0.1,2.2,0.2
	c0.6,0.2,1.4,0.1,2.2-0.2c0-0.5,0.1-0.9,0.2-1.1c0.1-0.2,0.1-0.6-0.2-1.1c-2,0-4-0.1-6.1-0.2C239.2,86.3,237.2,86.4,235.4,86.6z
	 M238.7,92.7c1.4,0.2,2.7,0.4,4.1,0.6c1.4,0.2,2.9,0.2,4.6-0.2v-2.7c-1.5,0.2-3.2,0.1-5.2-0.3c-2-0.4-3.8-0.5-5.2-0.3
	c0.3,0.5,0.7,1,1.1,1.4C238.4,91.7,238.7,92.1,238.7,92.7z M242.4,96.4c0.4-0.1,0.9-0.1,1.5-0.1c0.6,0.1,1.1,0.1,1.6,0.1
	c0.5,0,1-0.1,1.3-0.3c0.4-0.2,0.5-0.6,0.5-1.2c-1.1,0.2-2.1,0.4-2.7,0.5C244,95.6,243.2,95.9,242.4,96.4z M251.1,107.4
	c0-1.1-0.2-2.1-0.5-2.7c-0.4-0.7-0.5-1.6-0.5-2.7c-0.5,0.3-0.9,0.4-1.1,0.2c-0.2-0.2-0.6-0.2-1.1-0.2c-0.2,1.5,0.1,2.5,0.9,3.2
	C249.5,105.8,250.3,106.5,251.1,107.4z M247.9,31.4c0.5,0,0.8-0.4,0.9-1.2c0.1-0.8,0-1.3-0.2-1.6c-0.3,0.3-0.4,0.8-0.3,1.4
	C248.3,30.7,248.2,31.1,247.9,31.4z M254,68.6c0-4.2-0.1-8.3-0.2-12.3c-0.1-4-0.4-7.9-0.9-11.8h-1.1c-0.3,3.9-0.2,7.8,0.5,11.8
	C252.9,60.4,253.4,64.4,254,68.6z M252.2,103c0.3,0.8,0.5,1.7,0.6,2.7c0.1,0.9-0.3,1.5-1.1,1.7c0.2,0.8,0.5,1.5,0.9,2.1
	c0.4,0.6,1,1,1.8,1.2c-0.5-0.4-0.9-1-1.1-1.8c-0.2-0.8-0.3-1.6-0.3-2.6s0.1-1.8,0.2-2.7c0.1-0.9,0.2-1.6,0.2-2.1
	c-0.2,0.2-0.4,0.4-0.7,0.5C252.4,102.1,252.2,102.5,252.2,103z"/>
</svg>
