<?xml version="1.0" encoding="utf-8"?>
<!-- Generator: Adobe Illustrator 18.0.0, SVG Export Plug-In . SVG Version: 6.00 Build 0)  -->
<!DOCTYPE svg PUBLIC "-//W3C//DTD SVG 1.1//EN" "http://www.w3.org/Graphics/SVG/1.1/DTD/svg11.dtd">
<svg version="1.1" id="Layer_1" xmlns="http://www.w3.org/2000/svg" xmlns:xlink="http://www.w3.org/1999/xlink" x="0px" y="0px"
	 viewBox="15 132 270 36" enable-background="new 15 132 270 36" xml:space="preserve">
<path d="M25.8,142.7v5.6H37v5.1H25.8v9.1h-5.1v-25h16.8v5.1H25.8z M47.1,137.5v25H42v-25H47.1z M74.3,156.6
	c-0.5,0.9-1.2,1.7-1.9,2.4c-0.7,0.7-1.6,1.3-2.5,1.9c-0.9,0.5-1.9,0.9-2.9,1.2s-2.1,0.4-3.2,0.4c-1.7,0-3.3-0.3-4.9-1
	c-1.5-0.7-2.8-1.5-4-2.7c-1.1-1.1-2-2.5-2.7-4c-0.7-1.5-1-3.1-1-4.9c0-1.7,0.3-3.3,1-4.9c0.7-1.5,1.5-2.8,2.7-4s2.4-2,4-2.7
	c1.5-0.7,3.1-1,4.9-1c1.1,0,2.2,0.1,3.2,0.4c1,0.3,2,0.7,2.9,1.2c0.9,0.5,1.7,1.2,2.5,1.9c0.7,0.7,1.4,1.5,1.9,2.4l-3.8,3.8
	c-0.3-0.7-0.6-1.3-1.1-1.9c-0.4-0.6-1-1.1-1.5-1.5c-0.6-0.4-1.2-0.7-1.9-1c-0.7-0.2-1.4-0.3-2.2-0.3c-1,0-1.9,0.2-2.8,0.6
	c-0.9,0.4-1.7,0.9-2.3,1.6c-0.7,0.7-1.2,1.4-1.6,2.3c-0.4,0.9-0.6,1.8-0.6,2.9s0.2,2,0.6,2.9c0.4,0.9,0.9,1.7,1.6,2.3
	c0.7,0.7,1.4,1.2,2.3,1.6c0.9,0.4,1.8,0.6,2.8,0.6c0.8,0,1.5-0.1,2.2-0.3c0.7-0.2,1.3-0.5,1.9-1c0.6-0.4,1.1-0.9,1.5-1.4
	c0.4-0.6,0.8-1.2,1.1-1.9L74.3,156.6z M94.6,142.7h-5.8v19.8h-5.2v-19.8h-5.8v-5.2h16.8V142.7z M104.2,137.5v25H99v-25H104.2z
	 M121.3,162.5c-1.7,0-3.3-0.3-4.9-1c-1.5-0.7-2.8-1.5-4-2.7c-1.1-1.1-2-2.5-2.7-4s-1-3.1-1-4.9c0-1.7,0.3-3.3,1-4.9
	c0.7-1.5,1.5-2.8,2.7-4c1.1-1.1,2.4-2,4-2.7c1.5-0.7,3.1-1,4.9-1c1.7,0,3.3,0.3,4.9,1c1.5,0.7,2.8,1.5,4,2.7c1.1,1.1,2,2.5,2.7,4
	s1,3.1,1,4.9c0,1.7-0.3,3.3-1,4.9c-0.7,1.5-1.5,2.8-2.7,4c-1.1,1.1-2.4,2-4,2.7C124.6,162.1,123,162.5,121.3,162.5z M121.3,142.6
	c-1,0-2,0.2-2.9,0.6c-0.9,0.4-1.7,0.9-2.3,1.6c-0.7,0.7-1.2,1.4-1.6,2.3c-0.4,0.9-0.6,1.8-0.6,2.9s0.2,2,0.6,2.9
	c0.4,0.9,0.9,1.7,1.6,2.3c0.7,0.7,1.4,1.2,2.3,1.6c0.9,0.4,1.8,0.6,2.9,0.6c1,0,1.9-0.2,2.8-0.6c0.9-0.4,1.7-0.9,2.3-1.6
	s1.2-1.4,1.6-2.3c0.4-0.9,0.6-1.8,0.6-2.9s-0.2-2-0.6-2.9c-0.4-0.9-0.9-1.7-1.6-2.3c-0.7-0.7-1.4-1.2-2.3-1.6
	C123.2,142.8,122.3,142.6,121.3,142.6z M154.7,137.5h5.3v25h-5.9l-10.8-16.2v16.2h-5.3v-25h5.9l10.8,16.2V137.5z M192.9,138.9
	c0.7,0.3,1.5,0.8,2.3,1.3c0.8,0.6,1.5,1.3,2.1,2.1c0.6,0.9,1.1,1.9,1.5,3.2c0.4,1.2,0.6,2.7,0.6,4.4c0,2.1-0.3,3.8-1,5.3
	s-1.5,2.6-2.5,3.5s-2.1,1.7-3.4,2.1c-1.2,0.5-2.5,0.9-3.7,1.1c-1.2,0.2-2.4,0.4-3.5,0.4c-1.1,0-2,0.1-2.7,0.1h-2.6v-25h2.6
	c0.7,0,1.5,0,2.3,0c0.8,0,1.7,0.1,2.6,0.2s1.8,0.2,2.7,0.4C191.2,138.3,192.1,138.6,192.9,138.9z M185.4,157.3
	c1.6-0.1,3-0.3,4.1-0.7c1.1-0.3,2.1-0.8,2.8-1.4s1.3-1.3,1.6-2.2c0.3-0.9,0.5-1.9,0.5-3.1c0-1.4-0.2-2.5-0.5-3.4s-0.9-1.6-1.7-2.2
	s-1.7-1-2.8-1.2s-2.5-0.4-4-0.5V157.3z M215.2,162.5c-1.7,0-3.3-0.3-4.9-1c-1.5-0.7-2.8-1.5-4-2.7s-2-2.5-2.7-4
	c-0.7-1.5-1-3.1-1-4.9c0-1.7,0.3-3.3,1-4.9c0.7-1.5,1.5-2.8,2.7-4c1.1-1.1,2.4-2,4-2.7c1.5-0.7,3.1-1,4.9-1c1.7,0,3.3,0.3,4.9,1
	c1.5,0.7,2.8,1.5,4,2.7c1.1,1.1,2,2.5,2.7,4c0.7,1.5,1,3.1,1,4.9c0,1.7-0.3,3.3-1,4.9s-1.5,2.8-2.7,4s-2.4,2-4,2.7
	C218.6,162.1,217,162.5,215.2,162.5z M215.2,142.6c-1,0-2,0.2-2.9,0.6c-0.9,0.4-1.7,0.9-2.3,1.6s-1.2,1.4-1.6,2.3
	c-0.4,0.9-0.6,1.8-0.6,2.9s0.2,2,0.6,2.9c0.4,0.9,0.9,1.7,1.6,2.3c0.7,0.7,1.4,1.2,2.3,1.6c0.9,0.4,1.8,0.6,2.9,0.6
	c1,0,1.9-0.2,2.8-0.6c0.9-0.4,1.7-0.9,2.3-1.6c0.7-0.7,1.2-1.4,1.6-2.3c0.4-0.9,0.6-1.8,0.6-2.9s-0.2-2-0.6-2.9
	c-0.4-0.9-0.9-1.7-1.6-2.3s-1.4-1.2-2.3-1.6S216.3,142.6,215.2,142.6z M253,156.6c-0.5,0.9-1.2,1.7-1.9,2.4
	c-0.7,0.7-1.6,1.3-2.5,1.9c-0.9,0.5-1.9,0.9-2.9,1.2s-2.1,0.4-3.2,0.4c-1.7,0-3.3-0.3-4.9-1c-1.5-0.7-2.8-1.5-4-2.7
	c-1.1-1.1-2-2.5-2.7-4c-0.7-1.5-1-3.1-1-4.9c0-1.7,0.3-3.3,1-4.9c0.7-1.5,1.5-2.8,2.7-4s2.4-2,4-2.7c1.5-0.7,3.1-1,4.9-1
	c1.1,0,2.2,0.1,3.2,0.4c1,0.3,2,0.7,2.9,1.2c0.9,0.5,1.7,1.2,2.5,1.9c0.7,0.7,1.4,1.5,1.9,2.4l-3.8,3.8c-0.3-0.7-0.6-1.3-1.1-1.9
	c-0.4-0.6-1-1.1-1.5-1.5s-1.2-0.7-1.9-1c-0.7-0.2-1.4-0.3-2.2-0.3c-1,0-1.9,0.2-2.8,0.6c-0.9,0.4-1.7,0.9-2.3,1.6
	c-0.7,0.7-1.2,1.4-1.6,2.3c-0.4,0.9-0.6,1.8-0.6,2.9s0.2,2,0.6,2.9c0.4,0.9,0.9,1.7,1.6,2.3c0.7,0.7,1.4,1.2,2.3,1.6
	c0.9,0.4,1.8,0.6,2.8,0.6c0.8,0,1.5-0.1,2.2-0.3c0.7-0.2,1.3-0.5,1.9-1s1.1-0.9,1.5-1.4s0.8-1.2,1.1-1.9L253,156.6z M276.7,137.5
	c0,1.3-0.1,2.5-0.3,3.5s-0.4,2.1-0.7,3c-0.3,0.9-0.6,1.7-1,2.4c-0.4,0.7-0.7,1.3-1.1,1.9c-0.9,1.3-1.9,2.3-3,3.1
	c1.1,0,2,0.2,2.8,0.5c0.8,0.3,1.5,0.7,2.1,1.3c0.6,0.5,1.1,1.1,1.5,1.8c0.4,0.7,0.7,1.3,1,2c0.6,1.6,1,3.5,1.1,5.6h-5.1
	c0-0.7-0.1-1.4-0.2-2s-0.4-1.1-0.6-1.5c-0.3-0.4-0.5-0.8-0.9-1.1c-0.3-0.3-0.6-0.5-1-0.7c-0.8-0.5-1.7-0.7-2.7-0.8h-6.2v6.1h-5.1
	v-25h5.1v11.4c1.1,0,2-0.2,2.8-0.5c0.8-0.3,1.5-0.7,2.2-1.3c0.6-0.5,1.1-1.1,1.6-1.8c0.4-0.7,0.8-1.4,1.1-2.1
	c0.7-1.7,1.1-3.6,1.3-5.7C271.7,137.5,276.7,137.5,276.7,137.5z"/>
</svg>
