<?xml version="1.0" encoding="utf-8"?>
<!-- Generator: Adobe Illustrator 18.0.0, SVG Export Plug-In . SVG Version: 6.00 Build 0)  -->
<!DOCTYPE svg PUBLIC "-//W3C//DTD SVG 1.1//EN" "http://www.w3.org/Graphics/SVG/1.1/DTD/svg11.dtd">
<svg version="1.1" id="Layer_1" xmlns="http://www.w3.org/2000/svg" xmlns:xlink="http://www.w3.org/1999/xlink" x="0px" y="0px"
	 viewBox="0 258 300 42" enable-background="new 0 258 300 42" xml:space="preserve">
<path fill="#fff" d="M12.1,270.9v6.2h12.4v5.7H12.1V293H6.4v-27.8h18.7v5.7L12.1,270.9L12.1,270.9z M35.8,265.1v27.8h-5.7v-27.8
	H35.8z M66,286.3c-0.6,1-1.3,1.9-2.1,2.7c-0.8,0.8-1.8,1.4-2.8,2.1c-1,0.6-2.1,1-3.2,1.3s-2.3,0.4-3.6,0.4c-1.9,0-3.7-0.3-5.4-1.1
	c-1.7-0.8-3.1-1.7-4.4-3c-1.2-1.2-2.2-2.8-3-4.4c-0.8-1.7-1.1-3.4-1.1-5.4c0-1.9,0.3-3.7,1.1-5.4c0.8-1.7,1.7-3.1,3-4.4
	c1.3-1.3,2.7-2.2,4.4-3s3.4-1.1,5.4-1.1c1.2,0,2.4,0.1,3.6,0.4c1.1,0.3,2.2,0.8,3.2,1.3c1,0.6,1.9,1.3,2.8,2.1
	c0.8,0.8,1.6,1.7,2.1,2.7l-4.2,4.2c-0.3-0.8-0.7-1.4-1.2-2.1c-0.4-0.7-1.1-1.2-1.7-1.7c-0.7-0.4-1.3-0.8-2.1-1.1
	c-0.8-0.2-1.6-0.3-2.4-0.3c-1.1,0-2.1,0.2-3.1,0.7c-1,0.4-1.9,1-2.6,1.8c-0.8,0.8-1.3,1.6-1.8,2.6c-0.4,1-0.7,2-0.7,3.2
	s0.2,2.2,0.7,3.2c0.4,1,1,1.9,1.8,2.6c0.8,0.8,1.6,1.3,2.6,1.8c1,0.4,2,0.7,3.1,0.7c0.9,0,1.7-0.1,2.4-0.3c0.8-0.2,1.4-0.6,2.1-1.1
	c0.7-0.4,1.2-1,1.7-1.6c0.4-0.7,0.9-1.3,1.2-2.1L66,286.3z M88.5,270.9h-6.4v22h-5.8v-22h-6.4v-5.8h18.7
	C88.5,265.1,88.5,270.9,88.5,270.9z M99.2,265.1v27.8h-5.8v-27.8H99.2z M118.2,292.9c-1.9,0-3.7-0.3-5.4-1.1c-1.7-0.8-3.1-1.7-4.4-3
	c-1.2-1.2-2.2-2.8-3-4.4c-0.8-1.7-1.1-3.4-1.1-5.4c0-1.9,0.3-3.7,1.1-5.4c0.8-1.7,1.7-3.1,3-4.4c1.2-1.2,2.7-2.2,4.4-3
	s3.4-1.1,5.4-1.1c1.9,0,3.7,0.3,5.4,1.1c1.7,0.8,3.1,1.7,4.4,3c1.2,1.2,2.2,2.8,3,4.4c0.8,1.7,1.1,3.4,1.1,5.4
	c0,1.9-0.3,3.7-1.1,5.4c-0.8,1.7-1.7,3.1-3,4.4c-1.2,1.2-2.7,2.2-4.4,3C121.9,292.4,120.1,292.9,118.2,292.9z M118.2,270.8
	c-1.1,0-2.2,0.2-3.2,0.7c-1,0.4-1.9,1-2.6,1.8c-0.8,0.8-1.3,1.6-1.8,2.6c-0.4,1-0.7,2-0.7,3.2s0.2,2.2,0.7,3.2c0.4,1,1,1.9,1.8,2.6
	c0.8,0.8,1.6,1.3,2.6,1.8s2,0.7,3.2,0.7c1.1,0,2.1-0.2,3.1-0.7c1-0.4,1.9-1,2.6-1.8c0.7-0.8,1.3-1.6,1.8-2.6c0.4-1,0.7-2,0.7-3.2
	s-0.2-2.2-0.7-3.2c-0.4-1-1-1.9-1.8-2.6c-0.8-0.8-1.6-1.3-2.6-1.8C120.3,271,119.3,270.8,118.2,270.8z M155.3,265.1h5.9v27.8h-6.6
	l-12-18v18h-5.9v-27.8h6.6l12,18V265.1z M197.8,266.8c0.8,0.3,1.7,0.9,2.6,1.4c0.9,0.7,1.7,1.4,2.3,2.3c0.7,1,1.2,2.1,1.7,3.6
	c0.4,1.3,0.7,3,0.7,4.9c0,2.3-0.3,4.2-1.1,5.9c-0.8,1.7-1.7,2.9-2.8,3.9s-2.3,1.9-3.8,2.3c-1.3,0.6-2.8,1-4.1,1.2s-2.7,0.4-3.9,0.4
	s-2.2,0.1-3,0.1h-2.9V265h2.9c0.8,0,1.7,0,2.6,0c0.9,0,1.9,0.1,2.9,0.2s2,0.2,3,0.4C195.9,266,196.9,266.3,197.8,266.8z
	 M189.4,287.1c1.8-0.1,3.3-0.3,4.6-0.8c1.2-0.3,2.3-0.9,3.1-1.6s1.4-1.4,1.8-2.4c0.3-1,0.6-2.1,0.6-3.4c0-1.6-0.2-2.8-0.6-3.8
	c-0.3-1-1-1.8-1.9-2.4c-0.9-0.7-1.9-1.1-3.1-1.3c-1.2-0.2-2.8-0.4-4.4-0.6L189.4,287.1L189.4,287.1z M222.5,292.9
	c-1.9,0-3.7-0.3-5.4-1.1c-1.7-0.8-3.1-1.7-4.4-3c-1.3-1.3-2.2-2.8-3-4.4s-1.1-3.4-1.1-5.4c0-1.9,0.3-3.7,1.1-5.4
	c0.8-1.7,1.7-3.1,3-4.4c1.2-1.2,2.7-2.2,4.4-3s3.4-1.1,5.4-1.1c1.9,0,3.7,0.3,5.4,1.1c1.7,0.8,3.1,1.7,4.4,3c1.2,1.2,2.2,2.8,3,4.4
	c0.8,1.7,1.1,3.4,1.1,5.4c0,1.9-0.3,3.7-1.1,5.4s-1.7,3.1-3,4.4s-2.7,2.2-4.4,3C226.3,292.4,224.5,292.9,222.5,292.9z M222.5,270.8
	c-1.1,0-2.2,0.2-3.2,0.7c-1,0.4-1.9,1-2.6,1.8c-0.7,0.8-1.3,1.6-1.8,2.6c-0.4,1-0.7,2-0.7,3.2s0.2,2.2,0.7,3.2s1,1.9,1.8,2.6
	c0.8,0.8,1.6,1.3,2.6,1.8s2,0.7,3.2,0.7c1.1,0,2.1-0.2,3.1-0.7c1-0.4,1.9-1,2.6-1.8c0.8-0.8,1.3-1.6,1.8-2.6c0.4-1,0.7-2,0.7-3.2
	s-0.2-2.2-0.7-3.2s-1-1.9-1.8-2.6s-1.6-1.3-2.6-1.8C224.7,271,223.8,270.8,222.5,270.8z M264.5,286.3c-0.6,1-1.3,1.9-2.1,2.7
	s-1.8,1.4-2.8,2.1c-1,0.6-2.1,1-3.2,1.3c-1.1,0.3-2.3,0.4-3.6,0.4c-1.9,0-3.7-0.3-5.4-1.1c-1.7-0.8-3.1-1.7-4.4-3
	c-1.2-1.2-2.2-2.8-3-4.4c-0.8-1.7-1.1-3.4-1.1-5.4c0-1.9,0.3-3.7,1.1-5.4c0.8-1.7,1.7-3.1,3-4.4s2.7-2.2,4.4-3
	c1.7-0.8,3.4-1.1,5.4-1.1c1.2,0,2.4,0.1,3.6,0.4c1.1,0.3,2.2,0.8,3.2,1.3c1,0.6,1.9,1.3,2.8,2.1c0.8,0.8,1.6,1.7,2.1,2.7l-4.2,4.2
	c-0.3-0.8-0.7-1.4-1.2-2.1c-0.4-0.7-1.1-1.2-1.7-1.7c-0.6-0.4-1.3-0.8-2.1-1.1c-0.8-0.2-1.6-0.3-2.4-0.3c-1.1,0-2.1,0.2-3.1,0.7
	c-1,0.4-1.9,1-2.6,1.8c-0.8,0.8-1.3,1.6-1.8,2.6c-0.4,1-0.7,2-0.7,3.2s0.2,2.2,0.7,3.2c0.4,1,1,1.9,1.8,2.6c0.8,0.8,1.6,1.3,2.6,1.8
	c1,0.4,2,0.7,3.1,0.7c0.9,0,1.7-0.1,2.4-0.3c0.8-0.2,1.4-0.6,2.1-1.1c0.7-0.6,1.2-1,1.7-1.6c0.4-0.6,0.9-1.3,1.2-2.1L264.5,286.3z
	 M290.9,265.1c0,1.4-0.1,2.8-0.3,3.9s-0.4,2.3-0.8,3.3c-0.3,1-0.7,1.9-1.1,2.7c-0.4,0.8-0.8,1.4-1.2,2.1c-1,1.4-2.1,2.6-3.3,3.4
	c1.2,0,2.2,0.2,3.1,0.6s1.7,0.8,2.3,1.4c0.7,0.6,1.2,1.2,1.7,2c0.4,0.8,0.8,1.4,1.1,2.2c0.7,1.8,1.1,3.9,1.2,6.2h-5.7
	c0-0.8-0.1-1.6-0.2-2.2c-0.1-0.7-0.4-1.2-0.7-1.7c-0.3-0.4-0.6-0.9-1-1.2c-0.3-0.3-0.7-0.6-1.1-0.8c-0.9-0.6-1.9-0.8-3-0.9H275v6.8
	h-5.7v-27.8h5.7v12.7c1.2,0,2.2-0.2,3.1-0.6c0.9-0.3,1.7-0.8,2.4-1.4c0.7-0.6,1.2-1.2,1.8-2c0.4-0.8,0.9-1.6,1.2-2.3
	c0.8-1.9,1.2-4,1.4-6.3C285.3,265.1,290.9,265.1,290.9,265.1z"/>
</svg>
